<svg xmlns="http://www.w3.org/2000/svg" xmlns:xlink="http://www.w3.org/1999/xlink" width="5045.061523" height="4714.681152" viewBox="0 0 5045.06 4714.68"><path d="M80.6067 269.226L4984.61 269.226L4984.61 4654.23L80.6067 4654.23L80.6067 269.226Z" filter="url(#Effect_F_frame1)"/><defs><filter id="Effect_F_frame1"><feColorMatrix in="SourceAlpha" type="matrix" values="0 0 0 0 0 0 0 0 0 0 0 0 0 0 0.027451 0 0 0 0.11765 0" result="hardAlpha"/><feComposite in2="hardAlpha" operator="out"/><feOffset dx="0.000000" dy="8.060662"/><feGaussianBlur stdDeviation="0.800000"/></filter></defs><path d="M80.6067 269.226L4984.61 269.226L4984.61 4654.23L80.6067 4654.23L80.6067 269.226Z" filter="url(#Effect_F_frame2)"/><defs><filter id="Effect_F_frame2"><feColorMatrix in="SourceAlpha" type="matrix" values="0 0 0 0 0 0 0 0 0 0 0 0 0 0 0.027451 0 0 0 0.047059 0" result="hardAlpha"/><feComposite in2="hardAlpha" operator="out"/><feOffset dx="0.000000" dy="0.000000"/><feGaussianBlur stdDeviation="3.200000"/></filter></defs><path d="M0 0L4904 0L4904 4385L0 4385L0 0Z" fill="#FFFFFF" fill-opacity="1.000000" transform="matrix(1 0 0 1 80.6067 269.226)"/><path d="M0 0L4804.09 0L4804.09 2989.21L0 2989.21L0 0Z" fill="#FFFFFF" fill-opacity="1.000000" transform="matrix(1 0 0 1 130.563 318.828)"/><path d="M0 0L4804.09 0L4804.09 2989.21L0 2989.21L0 0Z" fill="none" stroke="#19191A" stroke-opacity="1.000000" stroke-width="2" stroke-dasharray="0 0" transform="matrix(1 0 0 1 130.563 318.828)"/><path d="M0 0L3925.5 0L3925.5 1892.93L0 1892.93L0 0Z" fill="#FFFFFF" fill-opacity="1.000000" transform="matrix(1 0 0 1 543.2 982.319)"/><path d="M0 0L3925.5 0L3925.5 1892.93L0 1892.93L0 0Z" fill="none" stroke="#19191A" stroke-opacity="1.000000" stroke-width="2" stroke-dasharray="0 0" transform="matrix(1 0 0 1 543.2 982.319)"/><path d="M0 0L1207.52 0L1207.52 896.902L0 896.902L0 0Z" fill="#FFFFFF" fill-opacity="1.000000" transform="matrix(1 0 0 1 2933.2 1621.98)"/><path d="M0 0L1207.52 0L1207.52 896.902L0 896.902L0 0Z" fill="none" stroke="#19191A" stroke-opacity="1.000000" stroke-width="2" stroke-dasharray="0 0" transform="matrix(1 0 0 1 2933.2 1621.98)"/><path d="M48.0938 136.914L239.625 136.914L239.625 174.953L261.492 174.953L261.492 116.805L163.617 116.805C159.539 106.68 151.805 92.8984 144.844 82.2109L123.82 88.8203C129.023 97.1875 134.508 107.875 138.234 116.805L27.0703 116.805L27.0703 174.953L48.0938 174.953L48.0938 136.914ZM125.297 183.039C116.367 172.914 97.9453 159.977 82.6875 151.609L69.6797 165.18C85.2188 174.391 103.359 188.453 111.727 198.297L125.297 183.039ZM41.4844 209.547C57.3047 218.758 76.6406 232.539 85.8516 242.945L98.7891 226.773C89.5781 217 69.6797 203.781 53.8594 195.133L41.4844 209.547ZM154.688 293.289C192.656 307.703 230.977 327.602 254.039 345.18L266.977 328.727C243.633 311.43 203.344 291.602 165.023 277.75L154.688 293.289ZM155.812 250.961C163.617 223.328 165.867 190.492 167.062 151.328L144.844 151.328C143.719 191.969 141.961 224.453 133.031 250.961L21.5859 250.961L21.5859 269.734L124.383 269.734C108.562 297.367 79.1719 316.07 24.4688 327.602C29.1094 332.172 34.2422 340.258 36.5625 346.023C100.547 331.328 132.75 306.297 149.203 269.734L268.102 269.734L268.102 250.961L155.812 250.961ZM381.585 127.422L381.585 190.211L332.648 190.211L332.648 127.422L381.585 127.422ZM332.648 274.586L332.648 209.547L381.585 209.547L381.585 274.586L332.648 274.586ZM401.765 108.156L312.468 108.156L312.468 316.914L332.648 316.914L332.648 294.203L401.765 294.203L401.765 108.156ZM563.906 141.555L529.031 141.555L529.031 85.6562L507.726 85.6562L507.726 141.555L414.703 141.555L414.703 162.578L507.726 162.578L507.726 315.227C507.726 320.992 505.406 322.68 499.71 322.961C493.312 323.242 472.007 323.242 449.859 322.68C453.304 328.445 456.468 338.219 457.664 343.984C486.421 344.266 504.562 343.984 514.687 340.258C524.742 337.094 529.031 330.484 529.031 315.227L529.031 162.578L563.906 162.578L563.906 141.555ZM486.984 254.125C477.492 236.898 457.312 207.508 442.054 185.641L424.546 194.852C439.804 217 459.07 247.516 468.281 265.094L486.984 254.125ZM703.897 89.3828C698.976 100.914 689.483 117.367 682.241 127.703L696.093 134.312C704.179 124.82 713.39 110.406 721.757 97.4688L703.897 89.3828ZM636.468 128.266C633.585 117.648 625.851 102.391 617.765 91.1406L602.226 97.4688C609.96 109.281 617.483 125.102 620.085 135.227L636.468 128.266ZM650.601 208.914L670.429 208.914L670.429 169.469C684.28 179.242 702.14 193.375 709.03 199.984L720.843 184.445C714.233 179.594 689.483 163.422 675.069 155.055L729.21 155.055L729.21 137.195L670.429 137.195L670.429 83.9688L650.601 83.9688L650.601 137.195L591.257 137.195L591.257 155.055L643.991 155.055C629.858 173.828 608.554 191.336 588.374 199.984C592.382 204.062 597.585 211.234 599.905 216.156C617.483 206.945 636.187 191.055 650.601 174.109L650.601 208.914ZM694.335 250.117C688.007 265.094 678.796 277.75 667.616 288.156C657.21 282.953 645.679 277.469 635.062 272.898C639.069 266.219 643.358 258.203 647.718 250.117L694.335 250.117ZM708.468 312.062C702.14 307.422 693.491 302.219 684.28 297.086C699.538 280.914 711.351 260.805 718.874 235.984L706.78 231.133L703.616 231.977L656.647 231.977C658.968 226.773 660.655 221.922 662.694 217L643.71 213.555C641.671 219.602 639.069 225.648 636.187 231.977L597.304 231.977L597.304 250.117L627.257 250.117C621.21 261.367 614.882 271.984 608.835 280.633C622.968 285.836 638.507 293.008 652.921 300.531C634.147 313.75 612.28 322.961 588.937 328.164C592.733 332.172 597.022 339.977 599.062 344.617C625.218 337.656 649.757 326.406 670.147 310.023C679.991 315.508 688.64 321.273 695.249 326.125L708.468 312.062ZM808.382 159.414C804.093 192.531 797.202 221.289 786.796 245.547C775.897 219.883 767.812 190.492 762.327 159.414L808.382 159.414ZM847.897 159.414L847.897 139.516L766.687 139.516C770.694 123.414 774.14 106.68 776.46 89.7344L756.843 86.8516C749.671 136.633 736.733 184.727 714.796 214.961C719.437 217.844 727.452 224.453 730.968 227.969C738.14 217 744.749 204.344 750.515 190.211C756.843 218.758 764.929 244.633 775.897 267.133C759.726 294.484 737.296 315.508 706.147 330.766C709.944 334.773 715.991 343.422 717.96 348.062C747.351 332.172 769.218 312.062 786.233 286.961C800.366 311.43 818.507 331.047 840.655 344.617C843.819 339.133 849.866 331.891 854.788 327.883C830.882 315.227 812.179 293.922 797.483 267.695C812.741 238.023 822.233 202.305 828.843 159.414L847.897 159.414ZM965.67 228.812L962.788 209.195L932.834 218.758L932.834 161.734L965.389 161.734L965.389 141.836L932.834 141.836L932.834 84.25L912.936 84.25L912.936 141.836L877.217 141.836L877.217 161.734L912.936 161.734L912.936 224.805C897.959 229.094 884.459 233.102 873.772 236.266L878.975 256.727C889.311 253.562 900.842 250.117 912.936 246.109L912.936 320.078C912.936 324.438 911.53 325.562 908.084 325.562C904.92 325.562 893.389 325.562 881.014 325.281C883.897 331.328 886.428 339.977 887.342 345.18C905.483 345.461 916.381 344.617 923.061 341.102C930.233 337.656 932.834 332.172 932.834 320.359L932.834 239.43L965.67 228.812ZM998.506 202.305C998.788 195.414 998.788 189.367 998.788 183.039L998.788 170.664L1054.33 170.664L1054.33 202.305L998.506 202.305ZM1108.48 115.328L1108.48 151.891L998.788 151.891L998.788 115.328L1108.48 115.328ZM1110.51 317.828L1022.13 317.828L1022.13 274.305L1110.51 274.305L1110.51 317.828ZM1138.78 220.727L1138.78 202.305L1074.8 202.305L1074.8 170.664L1128.94 170.664L1128.94 96.625L978.045 96.625L978.045 183.039C978.045 228.531 975.444 291.039 945.772 335.055C950.694 337.094 959.624 343.141 963.069 347.148C987.256 311.781 995.061 263.336 997.663 220.727L1054.33 220.727L1054.33 256.164L1003.36 256.164L1003.36 347.43L1022.13 347.43L1022.13 335.688L1110.51 335.688L1110.51 346.305L1130.13 346.305L1130.13 256.164L1074.8 256.164L1074.8 220.727L1138.78 220.727Z" fill="#19191A" fill-opacity="1.000000" transform="matrix(1 0 0 1 2953.76 1851.73)"/><path d="M0 0L1516.19 0L1516.19 896.902L0 896.902L0 0Z" fill="#FFFFFF" fill-opacity="1.000000" transform="matrix(1 0 0 1 912.106 1632.15)"/><path d="M0 0L1516.19 0L1516.19 896.902L0 896.902L0 0Z" fill="none" stroke="#19191A" stroke-opacity="1.000000" stroke-width="2" stroke-dasharray="0 0" transform="matrix(1 0 0 1 912.106 1632.15)"/><path d="M102.234 127.703L23.9062 127.703L23.9062 148.727L102.234 148.727L102.234 191.969L28.1953 191.969L28.1953 212.359L102.234 212.359L102.234 257.289L17.2969 257.289L17.2969 278.031L102.234 278.031L102.234 346.867L123.82 346.867L123.82 85.375L102.234 85.375L102.234 127.703ZM274.781 257.289L188.648 257.289L188.648 212.359L264.094 212.359L264.094 191.969L188.648 191.969L188.648 148.727L269.859 148.727L269.859 127.703L188.648 127.703L188.648 85.6562L166.781 85.6562L166.781 347.148L188.648 347.148L188.648 278.312L274.781 278.312L274.781 257.289ZM336.093 136.914L527.625 136.914L527.625 174.953L549.492 174.953L549.492 116.805L451.617 116.805C447.539 106.68 439.804 92.8984 432.843 82.2109L411.82 88.8203C417.023 97.1875 422.507 107.875 426.234 116.805L315.07 116.805L315.07 174.953L336.093 174.953L336.093 136.914ZM413.296 183.039C404.367 172.914 385.945 159.977 370.687 151.609L357.679 165.18C373.218 174.391 391.359 188.453 399.726 198.297L413.296 183.039ZM329.484 209.547C345.304 218.758 364.64 232.539 373.851 242.945L386.789 226.773C377.578 217 357.679 203.781 341.859 195.133L329.484 209.547ZM442.687 293.289C480.656 307.703 518.976 327.602 542.039 345.18L554.976 328.727C531.632 311.43 491.343 291.602 453.023 277.75L442.687 293.289ZM443.812 250.961C451.617 223.328 453.867 190.492 455.062 151.328L432.843 151.328C431.718 191.969 429.96 224.453 421.031 250.961L309.585 250.961L309.585 269.734L412.382 269.734C396.562 297.367 367.171 316.07 312.468 327.602C317.109 332.172 322.242 340.258 324.562 346.023C388.546 331.328 420.75 306.297 437.203 269.734L556.101 269.734L556.101 250.961L443.812 250.961ZM669.585 127.422L669.585 190.211L620.647 190.211L620.647 127.422L669.585 127.422ZM620.647 274.586L620.647 209.547L669.585 209.547L669.585 274.586L620.647 274.586ZM689.765 108.156L600.468 108.156L600.468 316.914L620.647 316.914L620.647 294.203L689.765 294.203L689.765 108.156ZM851.905 141.555L817.03 141.555L817.03 85.6562L795.726 85.6562L795.726 141.555L702.702 141.555L702.702 162.578L795.726 162.578L795.726 315.227C795.726 320.992 793.405 322.68 787.71 322.961C781.312 323.242 760.007 323.242 737.858 322.68C741.304 328.445 744.468 338.219 745.663 343.984C774.421 344.266 792.562 343.984 802.687 340.258C812.741 337.094 817.03 330.484 817.03 315.227L817.03 162.578L851.905 162.578L851.905 141.555ZM774.983 254.125C765.491 236.898 745.312 207.508 730.054 185.641L712.546 194.852C727.804 217 747.069 247.516 756.28 265.094L774.983 254.125ZM991.897 89.3828C986.975 100.914 977.483 117.367 970.241 127.703L984.092 134.312C992.178 124.82 1001.39 110.406 1009.76 97.4688L991.897 89.3828ZM924.467 128.266C921.584 117.648 913.85 102.391 905.764 91.1406L890.225 97.4688C897.959 109.281 905.483 125.102 908.084 135.227L924.467 128.266ZM938.6 208.914L958.428 208.914L958.428 169.469C972.28 179.242 990.139 193.375 997.03 199.984L1008.84 184.445C1002.23 179.594 977.483 163.422 963.069 155.055L1017.21 155.055L1017.21 137.195L958.428 137.195L958.428 83.9688L938.6 83.9688L938.6 137.195L879.256 137.195L879.256 155.055L931.991 155.055C917.858 173.828 896.553 191.336 876.374 199.984C880.381 204.062 885.584 211.234 887.905 216.156C905.483 206.945 924.186 191.055 938.6 174.109L938.6 208.914ZM982.334 250.117C976.006 265.094 966.795 277.75 955.616 288.156C945.209 282.953 933.678 277.469 923.061 272.898C927.069 266.219 931.358 258.203 935.717 250.117L982.334 250.117ZM996.467 312.062C990.139 307.422 981.491 302.219 972.28 297.086C987.538 280.914 999.35 260.805 1006.87 235.984L994.78 231.133L991.616 231.977L944.647 231.977C946.967 226.773 948.655 221.922 950.694 217L931.709 213.555C929.67 219.602 927.069 225.648 924.186 231.977L885.303 231.977L885.303 250.117L915.256 250.117C909.209 261.367 902.881 271.984 896.834 280.633C910.967 285.836 926.506 293.008 940.92 300.531C922.147 313.75 900.28 322.961 876.936 328.164C880.733 332.172 885.022 339.977 887.061 344.617C913.217 337.656 937.756 326.406 958.147 310.023C967.991 315.508 976.639 321.273 983.249 326.125L996.467 312.062ZM1096.38 159.414C1092.09 192.531 1085.2 221.289 1074.8 245.547C1063.9 219.883 1055.81 190.492 1050.33 159.414L1096.38 159.414ZM1135.9 159.414L1135.9 139.516L1054.69 139.516C1058.69 123.414 1062.14 106.68 1064.46 89.7344L1044.84 86.8516C1037.67 136.633 1024.73 184.727 1002.8 214.961C1007.44 217.844 1015.45 224.453 1018.97 227.969C1026.14 217 1032.75 204.344 1038.51 190.211C1044.84 218.758 1052.93 244.633 1063.9 267.133C1047.73 294.484 1025.3 315.508 994.147 330.766C997.944 334.773 1003.99 343.422 1005.96 348.062C1035.35 332.172 1057.22 312.062 1074.23 286.961C1088.37 311.43 1106.51 331.047 1128.65 344.617C1131.82 339.133 1137.87 331.891 1142.79 327.883C1118.88 315.227 1100.18 293.922 1085.48 267.695C1100.74 238.023 1110.23 202.305 1116.84 159.414L1135.9 159.414ZM1253.67 228.812L1250.79 209.195L1220.83 218.758L1220.83 161.734L1253.39 161.734L1253.39 141.836L1220.83 141.836L1220.83 84.25L1200.94 84.25L1200.94 141.836L1165.22 141.836L1165.22 161.734L1200.94 161.734L1200.94 224.805C1185.96 229.094 1172.46 233.102 1161.77 236.266L1166.97 256.727C1177.31 253.562 1188.84 250.117 1200.94 246.109L1200.94 320.078C1200.94 324.438 1199.53 325.562 1196.08 325.562C1192.92 325.562 1181.39 325.562 1169.01 325.281C1171.9 331.328 1174.43 339.977 1175.34 345.18C1193.48 345.461 1204.38 344.617 1211.06 341.102C1218.23 337.656 1220.83 332.172 1220.83 320.359L1220.83 239.43L1253.67 228.812ZM1286.51 202.305C1286.79 195.414 1286.79 189.367 1286.79 183.039L1286.79 170.664L1342.33 170.664L1342.33 202.305L1286.51 202.305ZM1396.47 115.328L1396.47 151.891L1286.79 151.891L1286.79 115.328L1396.47 115.328ZM1398.51 317.828L1310.13 317.828L1310.13 274.305L1398.51 274.305L1398.51 317.828ZM1426.78 220.727L1426.78 202.305L1362.79 202.305L1362.79 170.664L1416.94 170.664L1416.94 96.625L1266.04 96.625L1266.04 183.039C1266.04 228.531 1263.44 291.039 1233.77 335.055C1238.69 337.094 1247.62 343.141 1251.07 347.148C1275.26 311.781 1283.06 263.336 1285.66 220.727L1342.33 220.727L1342.33 256.164L1291.36 256.164L1291.36 347.43L1310.13 347.43L1310.13 335.688L1398.51 335.688L1398.51 346.305L1418.13 346.305L1418.13 256.164L1362.79 256.164L1362.79 220.727L1426.78 220.727Z" fill="#19191A" fill-opacity="1.000000" transform="matrix(1 0 0 1 942.997 1895.32)"/><path d="M0 44Q-0.54007 44 -1.07949 43.9735Q-1.61891 43.947 -2.15638 43.8941Q-2.69385 43.8411 -3.22807 43.7619Q-3.76229 43.6826 -4.29199 43.5773Q-4.82168 43.4719 -5.34556 43.3407Q-5.86945 43.2095 -6.38626 43.0527Q-6.90308 42.8959 -7.41158 42.714Q-7.92007 42.532 -8.41903 42.3253Q-8.91799 42.1187 -9.40621 41.8878Q-9.89443 41.6569 -10.3707 41.4023Q-10.847 41.1477 -11.3103 40.87Q-11.7735 40.5924 -12.2225 40.2923Q-12.6716 39.9923 -13.1054 39.6706Q-13.5392 39.3488 -13.9567 39.0062Q-14.3741 38.6636 -14.7743 38.3009Q-15.1745 37.9382 -15.5563 37.5563Q-15.9382 37.1745 -16.3009 36.7743Q-16.6636 36.3741 -17.0062 35.9567Q-17.3488 35.5392 -17.6706 35.1054Q-17.9923 34.6716 -18.2923 34.2225Q-18.5924 33.7735 -18.87 33.3103Q-19.1477 32.847 -19.4023 32.3707Q-19.6569 31.8944 -19.8878 31.4062Q-20.1187 30.918 -20.3253 30.419Q-20.532 29.9201 -20.714 29.4116Q-20.8959 28.9031 -21.0527 28.3863Q-21.2095 27.8694 -21.3407 27.3456Q-21.4719 26.8217 -21.5773 26.292Q-21.6826 25.7623 -21.7619 25.2281Q-21.8411 24.6938 -21.8941 24.1564Q-21.947 23.6189 -21.9735 23.0795Q-22 22.5401 -22 22Q-22 21.4599 -21.9735 20.9205Q-21.947 20.3811 -21.8941 19.8436Q-21.8411 19.3062 -21.7619 18.7719Q-21.6826 18.2377 -21.5773 17.708Q-21.4719 17.1783 -21.3407 16.6544Q-21.2095 16.1305 -21.0527 15.6137Q-20.8959 15.0969 -20.714 14.5884Q-20.532 14.0799 -20.3253 13.581Q-20.1187 13.082 -19.8878 12.5938Q-19.6569 12.1056 -19.4023 11.6293Q-19.1477 11.153 -18.87 10.6897Q-18.5924 10.2265 -18.2923 9.77745Q-17.9923 9.3284 -17.6706 8.89461Q-17.3488 8.46083 -17.0062 8.04335Q-16.6636 7.62587 -16.3009 7.2257Q-15.9382 6.82554 -15.5563 6.44365Q-15.1745 6.06176 -14.7743 5.69907Q-14.3741 5.33639 -13.9567 4.99377Q-13.5392 4.65115 -13.1054 4.32943Q-12.6716 4.00771 -12.2225 3.70767Q-11.7735 3.40762 -11.3103 3.12997Q-10.847 2.85232 -10.3707 2.59773Q-9.89443 2.34314 -9.40621 2.11224Q-8.91799 1.88133 -8.41903 1.67465Q-7.92007 1.46797 -7.41158 1.28603Q-6.90308 1.10409 -6.38626 0.947312Q-5.86945 0.790539 -5.34556 0.659312Q-4.82168 0.528086 -4.29199 0.422724Q-3.76229 0.317361 -3.22807 0.238117Q-2.69385 0.158872 -2.15638 0.105936Q-1.61891 0.0529999 -1.07949 0.0265Q-0.54007 0 0 0Q0.54007 0 1.07949 0.0265Q1.61891 0.0529999 2.15638 0.105936Q2.69385 0.158872 3.22807 0.238117Q3.76229 0.317361 4.29199 0.422724Q4.82168 0.528086 5.34556 0.659312Q5.86945 0.790539 6.38626 0.947312Q6.90308 1.10409 7.41158 1.28603Q7.92007 1.46797 8.41903 1.67465Q8.91799 1.88133 9.40621 2.11223Q9.89443 2.34314 10.3707 2.59773Q10.847 2.85232 11.3103 3.12997Q11.7735 3.40762 12.2225 3.70767Q12.6716 4.00771 13.1054 4.32943Q13.5392 4.65115 13.9567 4.99377Q14.3741 5.33639 14.7743 5.69907Q15.1745 6.06176 15.5563 6.44365Q15.9382 6.82554 16.3009 7.2257Q16.6636 7.62587 17.0062 8.04335Q17.3488 8.46083 17.6706 8.89462Q17.9923 9.3284 18.2923 9.77745Q18.5924 10.2265 18.87 10.6897Q19.1477 11.153 19.4023 11.6293Q19.6569 12.1056 19.8878 12.5938Q20.1187 13.082 20.3253 13.581Q20.532 14.0799 20.714 14.5884Q20.8959 15.0969 21.0527 15.6137Q21.2095 16.1305 21.3407 16.6544Q21.4719 17.1783 21.5773 17.708Q21.6826 18.2377 21.7619 18.7719Q21.8411 19.3062 21.8941 19.8436Q21.947 20.3811 21.9735 20.9205Q22 21.4599 22 22Q22 22.5401 21.9735 23.0795Q21.947 23.6189 21.8941 24.1564Q21.8411 24.6938 21.7619 25.2281Q21.6826 25.7623 21.5773 26.292Q21.4719 26.8217 21.3407 27.3456Q21.2095 27.8694 21.0527 28.3863Q20.8959 28.9031 20.714 29.4116Q20.532 29.9201 20.3253 30.419Q20.1187 30.918 19.8878 31.4062Q19.6569 31.8944 19.4023 32.3707Q19.1477 32.847 18.87 33.3103Q18.5924 33.7735 18.2923 34.2225Q17.9923 34.6716 17.6706 35.1054Q17.3488 35.5392 17.0062 35.9567Q16.6636 36.3741 16.3009 36.7743Q15.9382 37.1745 15.5563 37.5563Q15.1745 37.9382 14.7743 38.3009Q14.3741 38.6636 13.9567 39.0062Q13.5392 39.3488 13.1054 39.6706Q12.6716 39.9923 12.2225 40.2923Q11.7735 40.5924 11.3103 40.87Q10.847 41.1477 10.3707 41.4023Q9.89443 41.6569 9.40621 41.8878Q8.91799 42.1187 8.41903 42.3253Q7.92007 42.532 7.41158 42.714Q6.90308 42.8959 6.38626 43.0527Q5.86945 43.2095 5.34556 43.3407Q4.82168 43.4719 4.29199 43.5773Q3.76229 43.6826 3.22807 43.7619Q2.69385 43.8411 2.15638 43.8941Q1.61891 43.947 1.07949 43.9735Q0.54007 44 0 44Z" transform="matrix(1 0 0 1 3536.96 2518.89)" stroke="#000000" stroke-width="10.000000" stroke-opacity="1.000000" fill="none"/><path d="M0 1004.83Q0.54007 1004.83 1.07949 1004.86Q1.61891 1004.88 2.15638 1004.94Q2.69385 1004.99 3.22807 1005.07Q3.76229 1005.15 4.29199 1005.25Q4.82168 1005.36 5.34556 1005.49Q5.86945 1005.62 6.38626 1005.78Q6.90308 1005.93 7.41158 1006.12Q7.92007 1006.3 8.41903 1006.51Q8.91799 1006.71 9.40621 1006.94Q9.89443 1007.17 10.3707 1007.43Q10.847 1007.68 11.3103 1007.96Q11.7735 1008.24 12.2225 1008.54Q12.6716 1008.84 13.1054 1009.16Q13.5392 1009.48 13.9567 1009.82Q14.3741 1010.17 14.7743 1010.53Q15.1745 1010.89 15.5563 1011.27Q15.9382 1011.66 16.3009 1012.06Q16.6636 1012.46 17.0062 1012.87Q17.3488 1013.29 17.6706 1013.73Q17.9923 1014.16 18.2923 1014.61Q18.5924 1015.06 18.87 1015.52Q19.1477 1015.98 19.4023 1016.46Q19.6569 1016.94 19.8878 1017.42Q20.1187 1017.91 20.3253 1018.41Q20.532 1018.91 20.714 1019.42Q20.8959 1019.93 21.0527 1020.44Q21.2095 1020.96 21.3407 1021.48Q21.4719 1022.01 21.5773 1022.54Q21.6826 1023.07 21.7619 1023.6Q21.8411 1024.14 21.8941 1024.67Q21.947 1025.21 21.9735 1025.75Q22 1026.29 22 1026.83Q22 1027.37 21.9735 1027.91Q21.947 1028.45 21.8941 1028.99Q21.8411 1029.52 21.7619 1030.06Q21.6826 1030.59 21.5773 1031.12Q21.4719 1031.65 21.3407 1032.18Q21.2095 1032.7 21.0527 1033.22Q20.8959 1033.73 20.714 1034.24Q20.532 1034.75 20.3253 1035.25Q20.1187 1035.75 19.8878 1036.24Q19.6569 1036.72 19.4023 1037.2Q19.1477 1037.68 18.87 1038.14Q18.5924 1038.6 18.2923 1039.05Q17.9923 1039.5 17.6706 1039.94Q17.3488 1040.37 17.0062 1040.79Q16.6636 1041.2 16.3009 1041.6Q15.9382 1042.01 15.5563 1042.39Q15.1745 1042.77 14.7743 1043.13Q14.3741 1043.49 13.9567 1043.84Q13.5392 1044.18 13.1054 1044.5Q12.6716 1044.82 12.2225 1045.12Q11.7735 1045.42 11.3103 1045.7Q10.847 1045.98 10.3707 1046.23Q9.89443 1046.49 9.40621 1046.72Q8.91799 1046.95 8.41903 1047.16Q7.92007 1047.36 7.41158 1047.54Q6.90308 1047.73 6.38626 1047.88Q5.86945 1048.04 5.34556 1048.17Q4.82168 1048.3 4.29199 1048.41Q3.76229 1048.51 3.22807 1048.59Q2.69385 1048.67 2.15638 1048.72Q1.61891 1048.78 1.07949 1048.8Q0.54007 1048.83 0 1048.83Q-0.54007 1048.83 -1.07949 1048.8Q-1.61891 1048.78 -2.15638 1048.72Q-2.69385 1048.67 -3.22807 1048.59Q-3.76229 1048.51 -4.29199 1048.41Q-4.82168 1048.3 -5.34556 1048.17Q-5.86945 1048.04 -6.38626 1047.88Q-6.90308 1047.73 -7.41158 1047.54Q-7.92007 1047.36 -8.41903 1047.16Q-8.91799 1046.95 -9.40621 1046.72Q-9.89443 1046.49 -10.3707 1046.23Q-10.847 1045.98 -11.3103 1045.7Q-11.7735 1045.42 -12.2225 1045.12Q-12.6716 1044.82 -13.1054 1044.5Q-13.5392 1044.18 -13.9567 1043.84Q-14.3741 1043.49 -14.7743 1043.13Q-15.1745 1042.77 -15.5563 1042.39Q-15.9382 1042.01 -16.3009 1041.6Q-16.6636 1041.2 -17.0062 1040.79Q-17.3488 1040.37 -17.6706 1039.94Q-17.9923 1039.5 -18.2923 1039.05Q-18.5924 1038.6 -18.87 1038.14Q-19.1477 1037.68 -19.4023 1037.2Q-19.6569 1036.72 -19.8878 1036.24Q-20.1187 1035.75 -20.3253 1035.25Q-20.532 1034.75 -20.714 1034.24Q-20.8959 1033.73 -21.0527 1033.22Q-21.2095 1032.7 -21.3407 1032.18Q-21.4719 1031.65 -21.5773 1031.12Q-21.6826 1030.59 -21.7619 1030.06Q-21.8411 1029.52 -21.8941 1028.99Q-21.947 1028.45 -21.9735 1027.91Q-22 1027.37 -22 1026.83Q-22 1026.29 -21.9735 1025.75Q-21.947 1025.21 -21.8941 1024.67Q-21.8411 1024.14 -21.7619 1023.6Q-21.6826 1023.07 -21.5773 1022.54Q-21.4719 1022.01 -21.3407 1021.48Q-21.2095 1020.96 -21.0527 1020.44Q-20.8959 1019.93 -20.714 1019.42Q-20.532 1018.91 -20.3253 1018.41Q-20.1187 1017.91 -19.8878 1017.42Q-19.6569 1016.94 -19.4023 1016.46Q-19.1477 1015.98 -18.87 1015.52Q-18.5924 1015.06 -18.2923 1014.61Q-17.9923 1014.16 -17.6706 1013.73Q-17.3488 1013.29 -17.0062 1012.87Q-16.6636 1012.46 -16.3009 1012.06Q-15.9382 1011.66 -15.5563 1011.27Q-15.1745 1010.89 -14.7743 1010.53Q-14.3741 1010.17 -13.9567 1009.82Q-13.5392 1009.48 -13.1054 1009.16Q-12.6716 1008.84 -12.2225 1008.54Q-11.7735 1008.24 -11.3103 1007.96Q-10.847 1007.68 -10.3707 1007.43Q-9.89443 1007.17 -9.40621 1006.94Q-8.91799 1006.71 -8.41903 1006.51Q-7.92007 1006.3 -7.41158 1006.12Q-6.90308 1005.93 -6.38626 1005.78Q-5.86945 1005.62 -5.34556 1005.49Q-4.82168 1005.36 -4.29199 1005.25Q-3.76229 1005.15 -3.22807 1005.07Q-2.69385 1004.99 -2.15638 1004.94Q-1.61891 1004.88 -1.07949 1004.86Q-0.54007 1004.83 0 1004.83Z" transform="matrix(1 0 0 1 3536.96 2518.89)" stroke="#000000" stroke-width="10.000000" stroke-opacity="1.000000" fill="none"/><path d="M0 44L6.10352e-05 1004.83" fill="none" stroke="#000000" stroke-opacity="1.000000" stroke-width="10" stroke-linejoin="round" stroke-dasharray="20 20" transform="matrix(1 0 0 1 3536.96 2518.89)"/><path d="M0 0L0 1022.15" fill="none" stroke="#000000" stroke-opacity="1.000000" stroke-width="10" stroke-linejoin="round" stroke-dasharray="20 20" transform="matrix(1 0 0 1 1670.2 2529.05)"/><path d="M20.4622 231L38.4291 231L38.4291 152.295C38.4291 136.574 36.9817 120.604 36.1832 105.482L36.9817 105.482L53.1519 136.375L107.751 231L127.165 231L127.165 81.1766L109.148 81.1766L109.148 159.033C109.148 174.604 110.596 191.323 111.594 206.445L110.596 206.445L94.6253 175.602L40.076 81.1766L20.4622 81.1766L20.4622 231ZM203.789 282.106C238.175 282.106 259.835 264.338 259.835 243.677C259.835 225.46 246.959 217.325 221.207 217.325L199.497 217.325C184.574 217.325 180.083 212.384 180.083 205.248C180.083 199.109 183.177 195.416 187.269 191.972C192.16 194.418 198.299 195.815 203.789 195.815C226.297 195.815 244.264 180.893 244.264 157.186C244.264 147.604 240.621 139.419 235.281 134.328L257.989 134.328L257.989 120.005L219.36 120.005C215.467 118.558 209.927 117.16 203.789 117.16C181.33 117.16 162.116 132.482 162.116 156.787C162.116 170.062 169.253 180.693 176.639 186.632L176.639 187.48C170.9 191.523 164.162 198.909 164.162 208.092C164.162 216.876 168.454 222.815 174.393 226.309L174.393 227.107C163.962 233.845 157.824 242.878 157.824 252.261C157.824 271.475 176.639 282.106 203.789 282.106ZM203.789 183.188C190.913 183.188 180.083 172.957 180.083 156.787C180.083 140.417 190.713 130.835 203.789 130.835C216.915 130.835 227.295 140.667 227.295 156.787C227.295 172.957 216.465 183.188 203.789 183.188ZM206.484 269.429C186.221 269.429 174.144 261.643 174.144 249.815C174.144 243.277 177.637 236.739 185.622 231C190.513 232.248 195.853 232.847 199.946 232.847L219.16 232.847C233.883 232.847 241.819 236.29 241.819 246.521C241.819 258.2 227.745 269.429 206.484 269.429ZM281.497 231L300.113 231L300.113 120.005L281.497 120.005L281.497 231ZM290.88 97.0972C298.266 97.0972 303.756 92.0066 303.756 85.0195C303.756 77.4834 298.266 72.9917 290.88 72.9917C283.543 72.9917 278.004 77.4834 278.004 85.0195C278.004 92.0066 283.543 97.0972 290.88 97.0972ZM337.713 231L356.329 231L356.329 150.449C367.558 139.219 375.294 133.48 386.773 133.48C401.495 133.48 407.834 142.264 407.834 163.125L407.834 231L426.399 231L426.399 160.68C426.399 132.282 415.819 117.16 392.512 117.16C377.34 117.16 365.911 125.495 355.281 135.926L354.682 135.926L353.035 120.005L337.713 120.005L337.713 231ZM446.844 231L466.508 231L481.43 205.048C485.273 198.31 488.966 191.523 492.859 185.185L493.907 185.185C497.95 191.523 502.042 198.31 505.735 205.048L522.105 231L542.517 231L505.935 175.003L539.673 120.005L520.258 120.005L506.534 144.51C503.29 150.648 499.996 156.787 496.552 162.926L495.704 162.926C492.061 156.787 488.168 150.648 484.674 144.51L469.752 120.005L449.739 120.005L483.476 173.157L446.844 231Z" fill="#19191A" fill-opacity="1.000000" transform="matrix(1 0 0 1 2254.7 1089.26)"/><path d="M0 0L4804.09 0L4804.09 1036.93L0 1036.93L0 0Z" fill="#FFFFFF" fill-opacity="1.000000" transform="matrix(1 0 0 1 130.563 3567.69)"/><path d="M0 0L4804.09 0L4804.09 1036.93L0 1036.93L0 0Z" fill="none" stroke="#19191A" stroke-opacity="1.000000" stroke-width="2" stroke-dasharray="0 0" transform="matrix(1 0 0 1 130.563 3567.69)"/><path d="M163.548 174.155L163.548 222.216L79.104 222.216L79.104 174.155L163.548 174.155ZM63.9819 246.921L79.104 246.921L79.104 236.29L163.548 236.29L163.548 246.521L179.269 246.521L179.269 159.881L63.9819 159.881L63.9819 246.921ZM46.8136 116.112L46.8136 90.9585C93.4275 87.9142 145.132 82.3744 180.117 73.7902L167.441 61.7625C136.149 69.4982 79.5032 75.2376 31.2922 78.282L31.2922 130.835C31.2922 162.327 29.246 205.846 7.33646 236.739C11.0296 238.586 17.1683 243.876 19.8134 247.17C43.1204 214.031 46.8136 164.772 46.8136 130.835L194.391 130.835L194.391 116.112L46.8136 116.112ZM355.692 175.602L355.692 220.769L256.975 220.769L256.975 175.602L355.692 175.602ZM241.603 246.521L256.975 246.521L256.975 235.492L355.692 235.492L355.692 246.122L371.663 246.122L371.663 161.079L241.603 161.079L241.603 246.521ZM326.646 90.9585C336.478 99.7423 346.909 110.373 356.291 121.003L252.034 126.144C270.051 109.175 288.217 88.1138 304.387 66.0545L289.465 59.2671C273.494 84.6203 249.788 110.373 242.452 116.911C235.714 123.698 230.374 128.19 225.882 128.988C227.529 133.081 230.174 140.667 230.773 143.911C238.758 141.066 250.636 140.667 367.371 134.079C372.462 140.417 376.754 146.356 379.798 151.696L392.674 142.463C382.044 125.495 358.537 100.591 338.724 83.2228L326.646 90.9585Z" fill="#19191A" fill-opacity="1.000000" transform="matrix(1 0 0 1 2086.51 3991.83)"/><path d="M429.306 231L448.321 231L448.321 171.51L473.025 171.51C505.765 171.51 528.223 156.787 528.223 125.096C528.223 92.4059 505.765 81.1766 472.027 81.1766L429.306 81.1766L429.306 231ZM448.321 156.188L448.321 96.4983L469.781 96.4983C496.132 96.4983 509.408 103.436 509.408 125.096C509.408 146.556 496.931 156.188 470.58 156.188L448.321 156.188ZM594.454 233.645C621.654 233.645 645.959 212.384 645.959 175.602C645.959 138.621 621.654 117.16 594.454 117.16C567.255 117.16 542.949 138.621 542.949 175.602C542.949 212.384 567.255 233.645 594.454 233.645ZM594.454 218.124C575.24 218.124 562.364 201.155 562.364 175.602C562.364 150.049 575.24 132.682 594.454 132.682C613.669 132.682 626.745 150.049 626.745 175.602C626.745 201.155 613.669 218.124 594.454 218.124ZM713.044 233.645C726.319 233.645 737.948 226.508 746.731 217.924L747.181 217.924L748.977 231L764.149 231L764.149 68.3004L745.534 68.3004L745.534 111.022L746.532 130.236C736.75 122.051 728.365 117.16 715.29 117.16C689.936 117.16 667.228 139.619 667.228 175.602C667.228 212.584 685.245 233.645 713.044 233.645ZM717.136 218.124C697.472 218.124 686.443 202.153 686.443 175.403C686.443 150.049 700.567 132.881 718.534 132.881C727.766 132.881 736.101 136.125 745.534 144.51L745.534 202.802C736.351 213.033 727.317 218.124 717.136 218.124Z" fill="#19191A" fill-opacity="1.000000" transform="matrix(1 0 0 1 2086.51 3991.83)"/><path d="M18.8153 231L37.4309 231L37.4309 150.449C48.6602 139.219 56.3959 133.48 67.8747 133.48C82.5975 133.48 88.9358 142.264 88.9358 163.125L88.9358 231L107.502 231L107.502 160.68C107.502 132.282 96.9211 117.16 73.6141 117.16C58.4421 117.16 47.0132 125.495 36.3828 135.926L35.7839 135.926L34.137 120.005L18.8153 120.005L18.8153 231ZM181.098 282.106C215.484 282.106 237.144 264.338 237.144 243.677C237.144 225.46 224.268 217.325 198.516 217.325L176.806 217.325C161.883 217.325 157.392 212.384 157.392 205.248C157.392 199.109 160.486 195.416 164.578 191.972C169.469 194.418 175.608 195.815 181.098 195.815C203.606 195.815 221.573 180.893 221.573 157.186C221.573 147.604 217.93 139.419 212.59 134.328L235.298 134.328L235.298 120.005L196.669 120.005C192.776 118.558 187.237 117.16 181.098 117.16C158.639 117.16 139.425 132.482 139.425 156.787C139.425 170.062 146.562 180.693 153.948 186.632L153.948 187.48C148.209 191.523 141.471 198.909 141.471 208.092C141.471 216.876 145.763 222.815 151.702 226.309L151.702 227.107C141.271 233.845 135.133 242.878 135.133 252.261C135.133 271.475 153.948 282.106 181.098 282.106ZM181.098 183.188C168.222 183.188 157.392 172.957 157.392 156.787C157.392 140.417 168.022 130.835 181.098 130.835C194.224 130.835 204.605 140.667 204.605 156.787C204.605 172.957 193.775 183.188 181.098 183.188ZM183.793 269.429C163.53 269.429 151.453 261.643 151.453 249.815C151.453 243.277 154.946 236.739 162.931 231C167.822 232.248 173.163 232.847 177.255 232.847L196.47 232.847C211.192 232.847 219.128 236.29 219.128 246.521C219.128 258.2 205.054 269.429 183.793 269.429ZM258.806 231L277.422 231L277.422 120.005L258.806 120.005L258.806 231ZM268.189 97.0972C275.575 97.0972 281.065 92.0066 281.065 85.0195C281.065 77.4834 275.575 72.9917 268.189 72.9917C260.853 72.9917 255.313 77.4834 255.313 85.0195C255.313 92.0066 260.853 97.0972 268.189 97.0972ZM315.022 231L333.638 231L333.638 150.449C344.867 139.219 352.603 133.48 364.082 133.48C378.805 133.48 385.143 142.264 385.143 163.125L385.143 231L403.709 231L403.709 160.68C403.709 132.282 393.128 117.16 369.821 117.16C354.649 117.16 343.22 125.495 332.59 135.926L331.991 135.926L330.344 120.005L315.022 120.005L315.022 231ZM424.153 231L443.817 231L458.739 205.048C462.582 198.31 466.275 191.523 470.168 185.185L471.216 185.185C475.259 191.523 479.351 198.31 483.044 205.048L499.414 231L519.827 231L483.244 175.003L516.982 120.005L497.568 120.005L483.843 144.51C480.599 150.648 477.305 156.787 473.861 162.926L473.013 162.926C469.37 156.787 465.477 150.648 461.983 144.51L447.061 120.005L427.048 120.005L460.786 173.157L424.153 231ZM529.227 180.893L581.581 180.893L581.581 166.619L529.227 166.619L529.227 180.893ZM611.241 231L630.256 231L630.256 171.51L654.96 171.51C687.7 171.51 710.158 156.787 710.158 125.096C710.158 92.4059 687.7 81.1766 653.962 81.1766L611.241 81.1766L611.241 231ZM630.256 156.188L630.256 96.4983L651.716 96.4983C678.068 96.4983 691.343 103.436 691.343 125.096C691.343 146.556 678.866 156.188 652.515 156.188L630.256 156.188ZM776.39 233.645C803.589 233.645 827.895 212.384 827.895 175.602C827.895 138.621 803.589 117.16 776.39 117.16C749.19 117.16 724.885 138.621 724.885 175.602C724.885 212.384 749.19 233.645 776.39 233.645ZM776.39 218.124C757.175 218.124 744.299 201.155 744.299 175.602C744.299 150.049 757.175 132.682 776.39 132.682C795.604 132.682 808.68 150.049 808.68 175.602C808.68 201.155 795.604 218.124 776.39 218.124ZM894.979 233.645C908.254 233.645 919.883 226.508 928.667 217.924L929.116 217.924L930.913 231L946.085 231L946.085 68.3004L927.469 68.3004L927.469 111.022L928.467 130.236C918.685 122.051 910.301 117.16 897.225 117.16C871.872 117.16 849.164 139.619 849.164 175.602C849.164 212.584 867.18 233.645 894.979 233.645ZM899.071 218.124C879.408 218.124 868.378 202.153 868.378 175.403C868.378 150.049 882.502 132.881 900.469 132.881C909.702 132.881 918.036 136.125 927.469 144.51L927.469 202.802C918.286 213.033 909.253 218.124 899.071 218.124Z" fill="#19191A" fill-opacity="1.000000" transform="matrix(1 0 0 1 2044.96 439.427)"/><path d="M0 0L4804.09 0L4804.09 2989.21L0 2989.21L0 0Z" fill="#FFFFFF" fill-opacity="1.000000" transform="matrix(1 0 0 1 130.563 318.828)"/><path d="M0 0L4804.09 0L4804.09 2989.21L0 2989.21L0 0Z" fill="none" stroke="#19191A" stroke-opacity="1.000000" stroke-width="2" stroke-dasharray="0 0" transform="matrix(1 0 0 1 130.563 318.828)"/><path d="M0 0L3925.5 0L3925.5 1892.93L0 1892.93L0 0Z" fill="#FFFFFF" fill-opacity="1.000000" transform="matrix(1 0 0 1 543.2 982.319)"/><path d="M0 0L3925.5 0L3925.5 1892.93L0 1892.93L0 0Z" fill="none" stroke="#19191A" stroke-opacity="1.000000" stroke-width="2" stroke-dasharray="0 0" transform="matrix(1 0 0 1 543.2 982.319)"/><path d="M0 0L1207.52 0L1207.52 896.902L0 896.902L0 0Z" fill="#FFFFFF" fill-opacity="1.000000" transform="matrix(1 0 0 1 2933.2 1621.98)"/><path d="M0 0L1207.52 0L1207.52 896.902L0 896.902L0 0Z" fill="none" stroke="#19191A" stroke-opacity="1.000000" stroke-width="2" stroke-dasharray="0 0" transform="matrix(1 0 0 1 2933.2 1621.98)"/><path d="M48.0938 136.914L239.625 136.914L239.625 174.953L261.492 174.953L261.492 116.805L163.617 116.805C159.539 106.68 151.805 92.8984 144.844 82.2109L123.82 88.8203C129.023 97.1875 134.508 107.875 138.234 116.805L27.0703 116.805L27.0703 174.953L48.0938 174.953L48.0938 136.914ZM125.297 183.039C116.367 172.914 97.9453 159.977 82.6875 151.609L69.6797 165.18C85.2188 174.391 103.359 188.453 111.727 198.297L125.297 183.039ZM41.4844 209.547C57.3047 218.758 76.6406 232.539 85.8516 242.945L98.7891 226.773C89.5781 217 69.6797 203.781 53.8594 195.133L41.4844 209.547ZM154.688 293.289C192.656 307.703 230.977 327.602 254.039 345.18L266.977 328.727C243.633 311.43 203.344 291.602 165.023 277.75L154.688 293.289ZM155.812 250.961C163.617 223.328 165.867 190.492 167.062 151.328L144.844 151.328C143.719 191.969 141.961 224.453 133.031 250.961L21.5859 250.961L21.5859 269.734L124.383 269.734C108.562 297.367 79.1719 316.07 24.4688 327.602C29.1094 332.172 34.2422 340.258 36.5625 346.023C100.547 331.328 132.75 306.297 149.203 269.734L268.102 269.734L268.102 250.961L155.812 250.961ZM381.585 127.422L381.585 190.211L332.648 190.211L332.648 127.422L381.585 127.422ZM332.648 274.586L332.648 209.547L381.585 209.547L381.585 274.586L332.648 274.586ZM401.765 108.156L312.468 108.156L312.468 316.914L332.648 316.914L332.648 294.203L401.765 294.203L401.765 108.156ZM563.906 141.555L529.031 141.555L529.031 85.6562L507.726 85.6562L507.726 141.555L414.703 141.555L414.703 162.578L507.726 162.578L507.726 315.227C507.726 320.992 505.406 322.68 499.71 322.961C493.312 323.242 472.007 323.242 449.859 322.68C453.304 328.445 456.468 338.219 457.664 343.984C486.421 344.266 504.562 343.984 514.687 340.258C524.742 337.094 529.031 330.484 529.031 315.227L529.031 162.578L563.906 162.578L563.906 141.555ZM486.984 254.125C477.492 236.898 457.312 207.508 442.054 185.641L424.546 194.852C439.804 217 459.07 247.516 468.281 265.094L486.984 254.125ZM703.897 89.3828C698.976 100.914 689.483 117.367 682.241 127.703L696.093 134.312C704.179 124.82 713.39 110.406 721.757 97.4688L703.897 89.3828ZM636.468 128.266C633.585 117.648 625.851 102.391 617.765 91.1406L602.226 97.4688C609.96 109.281 617.483 125.102 620.085 135.227L636.468 128.266ZM650.601 208.914L670.429 208.914L670.429 169.469C684.28 179.242 702.14 193.375 709.03 199.984L720.843 184.445C714.233 179.594 689.483 163.422 675.069 155.055L729.21 155.055L729.21 137.195L670.429 137.195L670.429 83.9688L650.601 83.9688L650.601 137.195L591.257 137.195L591.257 155.055L643.991 155.055C629.858 173.828 608.554 191.336 588.374 199.984C592.382 204.062 597.585 211.234 599.905 216.156C617.483 206.945 636.187 191.055 650.601 174.109L650.601 208.914ZM694.335 250.117C688.007 265.094 678.796 277.75 667.616 288.156C657.21 282.953 645.679 277.469 635.062 272.898C639.069 266.219 643.358 258.203 647.718 250.117L694.335 250.117ZM708.468 312.062C702.14 307.422 693.491 302.219 684.28 297.086C699.538 280.914 711.351 260.805 718.874 235.984L706.78 231.133L703.616 231.977L656.647 231.977C658.968 226.773 660.655 221.922 662.694 217L643.71 213.555C641.671 219.602 639.069 225.648 636.187 231.977L597.304 231.977L597.304 250.117L627.257 250.117C621.21 261.367 614.882 271.984 608.835 280.633C622.968 285.836 638.507 293.008 652.921 300.531C634.147 313.75 612.28 322.961 588.937 328.164C592.733 332.172 597.022 339.977 599.062 344.617C625.218 337.656 649.757 326.406 670.147 310.023C679.991 315.508 688.64 321.273 695.249 326.125L708.468 312.062ZM808.382 159.414C804.093 192.531 797.202 221.289 786.796 245.547C775.897 219.883 767.812 190.492 762.327 159.414L808.382 159.414ZM847.897 159.414L847.897 139.516L766.687 139.516C770.694 123.414 774.14 106.68 776.46 89.7344L756.843 86.8516C749.671 136.633 736.733 184.727 714.796 214.961C719.437 217.844 727.452 224.453 730.968 227.969C738.14 217 744.749 204.344 750.515 190.211C756.843 218.758 764.929 244.633 775.897 267.133C759.726 294.484 737.296 315.508 706.147 330.766C709.944 334.773 715.991 343.422 717.96 348.062C747.351 332.172 769.218 312.062 786.233 286.961C800.366 311.43 818.507 331.047 840.655 344.617C843.819 339.133 849.866 331.891 854.788 327.883C830.882 315.227 812.179 293.922 797.483 267.695C812.741 238.023 822.233 202.305 828.843 159.414L847.897 159.414ZM965.67 228.812L962.788 209.195L932.834 218.758L932.834 161.734L965.389 161.734L965.389 141.836L932.834 141.836L932.834 84.25L912.936 84.25L912.936 141.836L877.217 141.836L877.217 161.734L912.936 161.734L912.936 224.805C897.959 229.094 884.459 233.102 873.772 236.266L878.975 256.727C889.311 253.562 900.842 250.117 912.936 246.109L912.936 320.078C912.936 324.438 911.53 325.562 908.084 325.562C904.92 325.562 893.389 325.562 881.014 325.281C883.897 331.328 886.428 339.977 887.342 345.18C905.483 345.461 916.381 344.617 923.061 341.102C930.233 337.656 932.834 332.172 932.834 320.359L932.834 239.43L965.67 228.812ZM998.506 202.305C998.788 195.414 998.788 189.367 998.788 183.039L998.788 170.664L1054.33 170.664L1054.33 202.305L998.506 202.305ZM1108.48 115.328L1108.48 151.891L998.788 151.891L998.788 115.328L1108.48 115.328ZM1110.51 317.828L1022.13 317.828L1022.13 274.305L1110.51 274.305L1110.51 317.828ZM1138.78 220.727L1138.78 202.305L1074.8 202.305L1074.8 170.664L1128.94 170.664L1128.94 96.625L978.045 96.625L978.045 183.039C978.045 228.531 975.444 291.039 945.772 335.055C950.694 337.094 959.624 343.141 963.069 347.148C987.256 311.781 995.061 263.336 997.663 220.727L1054.33 220.727L1054.33 256.164L1003.36 256.164L1003.36 347.43L1022.13 347.43L1022.13 335.688L1110.51 335.688L1110.51 346.305L1130.13 346.305L1130.13 256.164L1074.8 256.164L1074.8 220.727L1138.78 220.727Z" fill="#19191A" fill-opacity="1.000000" transform="matrix(1 0 0 1 2953.76 1851.73)"/><path d="M0 0L1516.19 0L1516.19 896.902L0 896.902L0 0Z" fill="#FFFFFF" fill-opacity="1.000000" transform="matrix(1 0 0 1 912.106 1632.15)"/><path d="M0 0L1516.19 0L1516.19 896.902L0 896.902L0 0Z" fill="none" stroke="#19191A" stroke-opacity="1.000000" stroke-width="2" stroke-dasharray="0 0" transform="matrix(1 0 0 1 912.106 1632.15)"/><path d="M102.234 127.703L23.9062 127.703L23.9062 148.727L102.234 148.727L102.234 191.969L28.1953 191.969L28.1953 212.359L102.234 212.359L102.234 257.289L17.2969 257.289L17.2969 278.031L102.234 278.031L102.234 346.867L123.82 346.867L123.82 85.375L102.234 85.375L102.234 127.703ZM274.781 257.289L188.648 257.289L188.648 212.359L264.094 212.359L264.094 191.969L188.648 191.969L188.648 148.727L269.859 148.727L269.859 127.703L188.648 127.703L188.648 85.6562L166.781 85.6562L166.781 347.148L188.648 347.148L188.648 278.312L274.781 278.312L274.781 257.289ZM336.093 136.914L527.625 136.914L527.625 174.953L549.492 174.953L549.492 116.805L451.617 116.805C447.539 106.68 439.804 92.8984 432.843 82.2109L411.82 88.8203C417.023 97.1875 422.507 107.875 426.234 116.805L315.07 116.805L315.07 174.953L336.093 174.953L336.093 136.914ZM413.296 183.039C404.367 172.914 385.945 159.977 370.687 151.609L357.679 165.18C373.218 174.391 391.359 188.453 399.726 198.297L413.296 183.039ZM329.484 209.547C345.304 218.758 364.64 232.539 373.851 242.945L386.789 226.773C377.578 217 357.679 203.781 341.859 195.133L329.484 209.547ZM442.687 293.289C480.656 307.703 518.976 327.602 542.039 345.18L554.976 328.727C531.632 311.43 491.343 291.602 453.023 277.75L442.687 293.289ZM443.812 250.961C451.617 223.328 453.867 190.492 455.062 151.328L432.843 151.328C431.718 191.969 429.96 224.453 421.031 250.961L309.585 250.961L309.585 269.734L412.382 269.734C396.562 297.367 367.171 316.07 312.468 327.602C317.109 332.172 322.242 340.258 324.562 346.023C388.546 331.328 420.75 306.297 437.203 269.734L556.101 269.734L556.101 250.961L443.812 250.961ZM669.585 127.422L669.585 190.211L620.647 190.211L620.647 127.422L669.585 127.422ZM620.647 274.586L620.647 209.547L669.585 209.547L669.585 274.586L620.647 274.586ZM689.765 108.156L600.468 108.156L600.468 316.914L620.647 316.914L620.647 294.203L689.765 294.203L689.765 108.156ZM851.905 141.555L817.03 141.555L817.03 85.6562L795.726 85.6562L795.726 141.555L702.702 141.555L702.702 162.578L795.726 162.578L795.726 315.227C795.726 320.992 793.405 322.68 787.71 322.961C781.312 323.242 760.007 323.242 737.858 322.68C741.304 328.445 744.468 338.219 745.663 343.984C774.421 344.266 792.562 343.984 802.687 340.258C812.741 337.094 817.03 330.484 817.03 315.227L817.03 162.578L851.905 162.578L851.905 141.555ZM774.983 254.125C765.491 236.898 745.312 207.508 730.054 185.641L712.546 194.852C727.804 217 747.069 247.516 756.28 265.094L774.983 254.125ZM991.897 89.3828C986.975 100.914 977.483 117.367 970.241 127.703L984.092 134.312C992.178 124.82 1001.39 110.406 1009.76 97.4688L991.897 89.3828ZM924.467 128.266C921.584 117.648 913.85 102.391 905.764 91.1406L890.225 97.4688C897.959 109.281 905.483 125.102 908.084 135.227L924.467 128.266ZM938.6 208.914L958.428 208.914L958.428 169.469C972.28 179.242 990.139 193.375 997.03 199.984L1008.84 184.445C1002.23 179.594 977.483 163.422 963.069 155.055L1017.21 155.055L1017.21 137.195L958.428 137.195L958.428 83.9688L938.6 83.9688L938.6 137.195L879.256 137.195L879.256 155.055L931.991 155.055C917.858 173.828 896.553 191.336 876.374 199.984C880.381 204.062 885.584 211.234 887.905 216.156C905.483 206.945 924.186 191.055 938.6 174.109L938.6 208.914ZM982.334 250.117C976.006 265.094 966.795 277.75 955.616 288.156C945.209 282.953 933.678 277.469 923.061 272.898C927.069 266.219 931.358 258.203 935.717 250.117L982.334 250.117ZM996.467 312.062C990.139 307.422 981.491 302.219 972.28 297.086C987.538 280.914 999.35 260.805 1006.87 235.984L994.78 231.133L991.616 231.977L944.647 231.977C946.967 226.773 948.655 221.922 950.694 217L931.709 213.555C929.67 219.602 927.069 225.648 924.186 231.977L885.303 231.977L885.303 250.117L915.256 250.117C909.209 261.367 902.881 271.984 896.834 280.633C910.967 285.836 926.506 293.008 940.92 300.531C922.147 313.75 900.28 322.961 876.936 328.164C880.733 332.172 885.022 339.977 887.061 344.617C913.217 337.656 937.756 326.406 958.147 310.023C967.991 315.508 976.639 321.273 983.249 326.125L996.467 312.062ZM1096.38 159.414C1092.09 192.531 1085.2 221.289 1074.8 245.547C1063.9 219.883 1055.81 190.492 1050.33 159.414L1096.38 159.414ZM1135.9 159.414L1135.9 139.516L1054.69 139.516C1058.69 123.414 1062.14 106.68 1064.46 89.7344L1044.84 86.8516C1037.67 136.633 1024.73 184.727 1002.8 214.961C1007.44 217.844 1015.45 224.453 1018.97 227.969C1026.14 217 1032.75 204.344 1038.51 190.211C1044.84 218.758 1052.93 244.633 1063.9 267.133C1047.73 294.484 1025.3 315.508 994.147 330.766C997.944 334.773 1003.99 343.422 1005.96 348.062C1035.35 332.172 1057.22 312.062 1074.23 286.961C1088.37 311.43 1106.51 331.047 1128.65 344.617C1131.82 339.133 1137.87 331.891 1142.79 327.883C1118.88 315.227 1100.18 293.922 1085.48 267.695C1100.74 238.023 1110.23 202.305 1116.84 159.414L1135.9 159.414ZM1253.67 228.812L1250.79 209.195L1220.83 218.758L1220.83 161.734L1253.39 161.734L1253.39 141.836L1220.83 141.836L1220.83 84.25L1200.94 84.25L1200.94 141.836L1165.22 141.836L1165.22 161.734L1200.94 161.734L1200.94 224.805C1185.96 229.094 1172.46 233.102 1161.77 236.266L1166.97 256.727C1177.31 253.562 1188.84 250.117 1200.94 246.109L1200.94 320.078C1200.94 324.438 1199.53 325.562 1196.08 325.562C1192.92 325.562 1181.39 325.562 1169.01 325.281C1171.9 331.328 1174.43 339.977 1175.34 345.18C1193.48 345.461 1204.38 344.617 1211.06 341.102C1218.23 337.656 1220.83 332.172 1220.83 320.359L1220.83 239.43L1253.67 228.812ZM1286.51 202.305C1286.79 195.414 1286.79 189.367 1286.79 183.039L1286.79 170.664L1342.33 170.664L1342.33 202.305L1286.51 202.305ZM1396.47 115.328L1396.47 151.891L1286.79 151.891L1286.79 115.328L1396.47 115.328ZM1398.51 317.828L1310.13 317.828L1310.13 274.305L1398.51 274.305L1398.51 317.828ZM1426.78 220.727L1426.78 202.305L1362.79 202.305L1362.79 170.664L1416.94 170.664L1416.94 96.625L1266.04 96.625L1266.04 183.039C1266.04 228.531 1263.44 291.039 1233.77 335.055C1238.69 337.094 1247.62 343.141 1251.07 347.148C1275.26 311.781 1283.06 263.336 1285.66 220.727L1342.33 220.727L1342.33 256.164L1291.36 256.164L1291.36 347.43L1310.13 347.43L1310.13 335.688L1398.51 335.688L1398.51 346.305L1418.13 346.305L1418.13 256.164L1362.79 256.164L1362.79 220.727L1426.78 220.727Z" fill="#19191A" fill-opacity="1.000000" transform="matrix(1 0 0 1 942.997 1895.32)"/><path d="M0 44Q-0.54007 44 -1.07949 43.9735Q-1.61891 43.947 -2.15638 43.8941Q-2.69385 43.8411 -3.22807 43.7619Q-3.76229 43.6826 -4.29199 43.5773Q-4.82168 43.4719 -5.34556 43.3407Q-5.86945 43.2095 -6.38626 43.0527Q-6.90308 42.8959 -7.41158 42.714Q-7.92007 42.532 -8.41903 42.3253Q-8.91799 42.1187 -9.40621 41.8878Q-9.89443 41.6569 -10.3707 41.4023Q-10.847 41.1477 -11.3103 40.87Q-11.7735 40.5924 -12.2225 40.2923Q-12.6716 39.9923 -13.1054 39.6706Q-13.5392 39.3488 -13.9567 39.0062Q-14.3741 38.6636 -14.7743 38.3009Q-15.1745 37.9382 -15.5563 37.5563Q-15.9382 37.1745 -16.3009 36.7743Q-16.6636 36.3741 -17.0062 35.9567Q-17.3488 35.5392 -17.6706 35.1054Q-17.9923 34.6716 -18.2923 34.2225Q-18.5924 33.7735 -18.87 33.3103Q-19.1477 32.847 -19.4023 32.3707Q-19.6569 31.8944 -19.8878 31.4062Q-20.1187 30.918 -20.3253 30.419Q-20.532 29.9201 -20.714 29.4116Q-20.8959 28.9031 -21.0527 28.3863Q-21.2095 27.8694 -21.3407 27.3456Q-21.4719 26.8217 -21.5773 26.292Q-21.6826 25.7623 -21.7619 25.2281Q-21.8411 24.6938 -21.8941 24.1564Q-21.947 23.6189 -21.9735 23.0795Q-22 22.5401 -22 22Q-22 21.4599 -21.9735 20.9205Q-21.947 20.3811 -21.8941 19.8436Q-21.8411 19.3062 -21.7619 18.7719Q-21.6826 18.2377 -21.5773 17.708Q-21.4719 17.1783 -21.3407 16.6544Q-21.2095 16.1305 -21.0527 15.6137Q-20.8959 15.0969 -20.714 14.5884Q-20.532 14.0799 -20.3253 13.581Q-20.1187 13.082 -19.8878 12.5938Q-19.6569 12.1056 -19.4023 11.6293Q-19.1477 11.153 -18.87 10.6897Q-18.5924 10.2265 -18.2923 9.77745Q-17.9923 9.3284 -17.6706 8.89461Q-17.3488 8.46083 -17.0062 8.04335Q-16.6636 7.62587 -16.3009 7.2257Q-15.9382 6.82554 -15.5563 6.44365Q-15.1745 6.06176 -14.7743 5.69907Q-14.3741 5.33639 -13.9567 4.99377Q-13.5392 4.65115 -13.1054 4.32943Q-12.6716 4.00771 -12.2225 3.70767Q-11.7735 3.40762 -11.3103 3.12997Q-10.847 2.85232 -10.3707 2.59773Q-9.89443 2.34314 -9.40621 2.11224Q-8.91799 1.88133 -8.41903 1.67465Q-7.92007 1.46797 -7.41158 1.28603Q-6.90308 1.10409 -6.38626 0.947312Q-5.86945 0.790539 -5.34556 0.659312Q-4.82168 0.528086 -4.29199 0.422724Q-3.76229 0.317361 -3.22807 0.238117Q-2.69385 0.158872 -2.15638 0.105936Q-1.61891 0.0529999 -1.07949 0.0265Q-0.54007 0 0 0Q0.54007 0 1.07949 0.0265Q1.61891 0.0529999 2.15638 0.105936Q2.69385 0.158872 3.22807 0.238117Q3.76229 0.317361 4.29199 0.422724Q4.82168 0.528086 5.34556 0.659312Q5.86945 0.790539 6.38626 0.947312Q6.90308 1.10409 7.41158 1.28603Q7.92007 1.46797 8.41903 1.67465Q8.91799 1.88133 9.40621 2.11223Q9.89443 2.34314 10.3707 2.59773Q10.847 2.85232 11.3103 3.12997Q11.7735 3.40762 12.2225 3.70767Q12.6716 4.00771 13.1054 4.32943Q13.5392 4.65115 13.9567 4.99377Q14.3741 5.33639 14.7743 5.69907Q15.1745 6.06176 15.5563 6.44365Q15.9382 6.82554 16.3009 7.2257Q16.6636 7.62587 17.0062 8.04335Q17.3488 8.46083 17.6706 8.89462Q17.9923 9.3284 18.2923 9.77745Q18.5924 10.2265 18.87 10.6897Q19.1477 11.153 19.4023 11.6293Q19.6569 12.1056 19.8878 12.5938Q20.1187 13.082 20.3253 13.581Q20.532 14.0799 20.714 14.5884Q20.8959 15.0969 21.0527 15.6137Q21.2095 16.1305 21.3407 16.6544Q21.4719 17.1783 21.5773 17.708Q21.6826 18.2377 21.7619 18.7719Q21.8411 19.3062 21.8941 19.8436Q21.947 20.3811 21.9735 20.9205Q22 21.4599 22 22Q22 22.5401 21.9735 23.0795Q21.947 23.6189 21.8941 24.1564Q21.8411 24.6938 21.7619 25.2281Q21.6826 25.7623 21.5773 26.292Q21.4719 26.8217 21.3407 27.3456Q21.2095 27.8694 21.0527 28.3863Q20.8959 28.9031 20.714 29.4116Q20.532 29.9201 20.3253 30.419Q20.1187 30.918 19.8878 31.4062Q19.6569 31.8944 19.4023 32.3707Q19.1477 32.847 18.87 33.3103Q18.5924 33.7735 18.2923 34.2225Q17.9923 34.6716 17.6706 35.1054Q17.3488 35.5392 17.0062 35.9567Q16.6636 36.3741 16.3009 36.7743Q15.9382 37.1745 15.5563 37.5563Q15.1745 37.9382 14.7743 38.3009Q14.3741 38.6636 13.9567 39.0062Q13.5392 39.3488 13.1054 39.6706Q12.6716 39.9923 12.2225 40.2923Q11.7735 40.5924 11.3103 40.87Q10.847 41.1477 10.3707 41.4023Q9.89443 41.6569 9.40621 41.8878Q8.91799 42.1187 8.41903 42.3253Q7.92007 42.532 7.41158 42.714Q6.90308 42.8959 6.38626 43.0527Q5.86945 43.2095 5.34556 43.3407Q4.82168 43.4719 4.29199 43.5773Q3.76229 43.6826 3.22807 43.7619Q2.69385 43.8411 2.15638 43.8941Q1.61891 43.947 1.07949 43.9735Q0.54007 44 0 44Z" transform="matrix(1 0 0 1 3536.96 2518.89)" stroke="#000000" stroke-width="10.000000" stroke-opacity="1.000000" fill="none"/><path d="M0 1004.83Q0.54007 1004.83 1.07949 1004.86Q1.61891 1004.88 2.15638 1004.94Q2.69385 1004.99 3.22807 1005.07Q3.76229 1005.15 4.29199 1005.25Q4.82168 1005.36 5.34556 1005.49Q5.86945 1005.62 6.38626 1005.78Q6.90308 1005.93 7.41158 1006.12Q7.92007 1006.3 8.41903 1006.51Q8.91799 1006.71 9.40621 1006.94Q9.89443 1007.17 10.3707 1007.43Q10.847 1007.68 11.3103 1007.96Q11.7735 1008.24 12.2225 1008.54Q12.6716 1008.84 13.1054 1009.16Q13.5392 1009.48 13.9567 1009.82Q14.3741 1010.17 14.7743 1010.53Q15.1745 1010.89 15.5563 1011.27Q15.9382 1011.66 16.3009 1012.06Q16.6636 1012.46 17.0062 1012.87Q17.3488 1013.29 17.6706 1013.73Q17.9923 1014.16 18.2923 1014.61Q18.5924 1015.06 18.87 1015.52Q19.1477 1015.98 19.4023 1016.46Q19.6569 1016.94 19.8878 1017.42Q20.1187 1017.91 20.3253 1018.41Q20.532 1018.91 20.714 1019.42Q20.8959 1019.93 21.0527 1020.44Q21.2095 1020.96 21.3407 1021.48Q21.4719 1022.01 21.5773 1022.54Q21.6826 1023.07 21.7619 1023.6Q21.8411 1024.14 21.8941 1024.67Q21.947 1025.21 21.9735 1025.75Q22 1026.29 22 1026.83Q22 1027.37 21.9735 1027.91Q21.947 1028.45 21.8941 1028.99Q21.8411 1029.52 21.7619 1030.06Q21.6826 1030.59 21.5773 1031.12Q21.4719 1031.65 21.3407 1032.18Q21.2095 1032.7 21.0527 1033.22Q20.8959 1033.73 20.714 1034.24Q20.532 1034.75 20.3253 1035.25Q20.1187 1035.75 19.8878 1036.24Q19.6569 1036.72 19.4023 1037.2Q19.1477 1037.68 18.87 1038.14Q18.5924 1038.6 18.2923 1039.05Q17.9923 1039.5 17.6706 1039.94Q17.3488 1040.37 17.0062 1040.79Q16.6636 1041.2 16.3009 1041.6Q15.9382 1042.01 15.5563 1042.39Q15.1745 1042.77 14.7743 1043.13Q14.3741 1043.49 13.9567 1043.84Q13.5392 1044.18 13.1054 1044.5Q12.6716 1044.82 12.2225 1045.12Q11.7735 1045.42 11.3103 1045.7Q10.847 1045.98 10.3707 1046.23Q9.89443 1046.49 9.40621 1046.72Q8.91799 1046.95 8.41903 1047.16Q7.92007 1047.36 7.41158 1047.54Q6.90308 1047.73 6.38626 1047.88Q5.86945 1048.04 5.34556 1048.17Q4.82168 1048.3 4.29199 1048.41Q3.76229 1048.51 3.22807 1048.59Q2.69385 1048.67 2.15638 1048.72Q1.61891 1048.78 1.07949 1048.8Q0.54007 1048.83 0 1048.83Q-0.54007 1048.83 -1.07949 1048.8Q-1.61891 1048.78 -2.15638 1048.72Q-2.69385 1048.67 -3.22807 1048.59Q-3.76229 1048.51 -4.29199 1048.41Q-4.82168 1048.3 -5.34556 1048.17Q-5.86945 1048.04 -6.38626 1047.88Q-6.90308 1047.73 -7.41158 1047.54Q-7.92007 1047.36 -8.41903 1047.16Q-8.91799 1046.95 -9.40621 1046.72Q-9.89443 1046.49 -10.3707 1046.23Q-10.847 1045.98 -11.3103 1045.7Q-11.7735 1045.42 -12.2225 1045.12Q-12.6716 1044.82 -13.1054 1044.5Q-13.5392 1044.18 -13.9567 1043.84Q-14.3741 1043.49 -14.7743 1043.13Q-15.1745 1042.77 -15.5563 1042.39Q-15.9382 1042.01 -16.3009 1041.6Q-16.6636 1041.2 -17.0062 1040.79Q-17.3488 1040.37 -17.6706 1039.94Q-17.9923 1039.5 -18.2923 1039.05Q-18.5924 1038.6 -18.87 1038.14Q-19.1477 1037.68 -19.4023 1037.2Q-19.6569 1036.72 -19.8878 1036.24Q-20.1187 1035.75 -20.3253 1035.25Q-20.532 1034.75 -20.714 1034.24Q-20.8959 1033.73 -21.0527 1033.22Q-21.2095 1032.7 -21.3407 1032.18Q-21.4719 1031.65 -21.5773 1031.12Q-21.6826 1030.59 -21.7619 1030.06Q-21.8411 1029.52 -21.8941 1028.99Q-21.947 1028.45 -21.9735 1027.91Q-22 1027.37 -22 1026.83Q-22 1026.29 -21.9735 1025.75Q-21.947 1025.21 -21.8941 1024.67Q-21.8411 1024.14 -21.7619 1023.6Q-21.6826 1023.07 -21.5773 1022.54Q-21.4719 1022.01 -21.3407 1021.48Q-21.2095 1020.96 -21.0527 1020.44Q-20.8959 1019.93 -20.714 1019.42Q-20.532 1018.91 -20.3253 1018.41Q-20.1187 1017.91 -19.8878 1017.42Q-19.6569 1016.94 -19.4023 1016.46Q-19.1477 1015.98 -18.87 1015.52Q-18.5924 1015.06 -18.2923 1014.61Q-17.9923 1014.16 -17.6706 1013.73Q-17.3488 1013.29 -17.0062 1012.87Q-16.6636 1012.46 -16.3009 1012.06Q-15.9382 1011.66 -15.5563 1011.27Q-15.1745 1010.89 -14.7743 1010.53Q-14.3741 1010.17 -13.9567 1009.82Q-13.5392 1009.48 -13.1054 1009.16Q-12.6716 1008.84 -12.2225 1008.54Q-11.7735 1008.24 -11.3103 1007.96Q-10.847 1007.68 -10.3707 1007.43Q-9.89443 1007.17 -9.40621 1006.94Q-8.91799 1006.71 -8.41903 1006.51Q-7.92007 1006.3 -7.41158 1006.12Q-6.90308 1005.93 -6.38626 1005.78Q-5.86945 1005.62 -5.34556 1005.49Q-4.82168 1005.36 -4.29199 1005.25Q-3.76229 1005.15 -3.22807 1005.07Q-2.69385 1004.99 -2.15638 1004.94Q-1.61891 1004.88 -1.07949 1004.86Q-0.54007 1004.83 0 1004.83Z" transform="matrix(1 0 0 1 3536.96 2518.89)" stroke="#000000" stroke-width="10.000000" stroke-opacity="1.000000" fill="none"/><path d="M0 44L6.10352e-05 1004.83" fill="none" stroke="#000000" stroke-opacity="1.000000" stroke-width="10" stroke-linejoin="round" stroke-dasharray="20 20" transform="matrix(1 0 0 1 3536.96 2518.89)"/><path d="M0 0L0 1022.15" fill="none" stroke="#000000" stroke-opacity="1.000000" stroke-width="10" stroke-linejoin="round" stroke-dasharray="20 20" transform="matrix(1 0 0 1 1670.2 2529.05)"/><path d="M20.4622 231L38.4291 231L38.4291 152.295C38.4291 136.574 36.9817 120.604 36.1832 105.482L36.9817 105.482L53.1519 136.375L107.751 231L127.165 231L127.165 81.1766L109.148 81.1766L109.148 159.033C109.148 174.604 110.596 191.323 111.594 206.445L110.596 206.445L94.6253 175.602L40.076 81.1766L20.4622 81.1766L20.4622 231ZM203.789 282.106C238.175 282.106 259.835 264.338 259.835 243.677C259.835 225.46 246.959 217.325 221.207 217.325L199.497 217.325C184.574 217.325 180.083 212.384 180.083 205.248C180.083 199.109 183.177 195.416 187.269 191.972C192.16 194.418 198.299 195.815 203.789 195.815C226.297 195.815 244.264 180.893 244.264 157.186C244.264 147.604 240.621 139.419 235.281 134.328L257.989 134.328L257.989 120.005L219.36 120.005C215.467 118.558 209.927 117.16 203.789 117.16C181.33 117.16 162.116 132.482 162.116 156.787C162.116 170.062 169.253 180.693 176.639 186.632L176.639 187.48C170.9 191.523 164.162 198.909 164.162 208.092C164.162 216.876 168.454 222.815 174.393 226.309L174.393 227.107C163.962 233.845 157.824 242.878 157.824 252.261C157.824 271.475 176.639 282.106 203.789 282.106ZM203.789 183.188C190.913 183.188 180.083 172.957 180.083 156.787C180.083 140.417 190.713 130.835 203.789 130.835C216.915 130.835 227.295 140.667 227.295 156.787C227.295 172.957 216.465 183.188 203.789 183.188ZM206.484 269.429C186.221 269.429 174.144 261.643 174.144 249.815C174.144 243.277 177.637 236.739 185.622 231C190.513 232.248 195.853 232.847 199.946 232.847L219.16 232.847C233.883 232.847 241.819 236.29 241.819 246.521C241.819 258.2 227.745 269.429 206.484 269.429ZM281.497 231L300.113 231L300.113 120.005L281.497 120.005L281.497 231ZM290.88 97.0972C298.266 97.0972 303.756 92.0066 303.756 85.0195C303.756 77.4834 298.266 72.9917 290.88 72.9917C283.543 72.9917 278.004 77.4834 278.004 85.0195C278.004 92.0066 283.543 97.0972 290.88 97.0972ZM337.713 231L356.329 231L356.329 150.449C367.558 139.219 375.294 133.48 386.773 133.48C401.495 133.48 407.834 142.264 407.834 163.125L407.834 231L426.399 231L426.399 160.68C426.399 132.282 415.819 117.16 392.512 117.16C377.34 117.16 365.911 125.495 355.281 135.926L354.682 135.926L353.035 120.005L337.713 120.005L337.713 231ZM446.844 231L466.508 231L481.43 205.048C485.273 198.31 488.966 191.523 492.859 185.185L493.907 185.185C497.95 191.523 502.042 198.31 505.735 205.048L522.105 231L542.517 231L505.935 175.003L539.673 120.005L520.258 120.005L506.534 144.51C503.29 150.648 499.996 156.787 496.552 162.926L495.704 162.926C492.061 156.787 488.168 150.648 484.674 144.51L469.752 120.005L449.739 120.005L483.476 173.157L446.844 231Z" fill="#19191A" fill-opacity="1.000000" transform="matrix(1 0 0 1 2254.7 1089.26)"/><path d="M0 0L4804.09 0L4804.09 1036.93L0 1036.93L0 0Z" fill="#FFFFFF" fill-opacity="1.000000" transform="matrix(1 0 0 1 130.563 3567.69)"/><path d="M0 0L4804.09 0L4804.09 1036.93L0 1036.93L0 0Z" fill="none" stroke="#19191A" stroke-opacity="1.000000" stroke-width="2" stroke-dasharray="0 0" transform="matrix(1 0 0 1 130.563 3567.69)"/><path d="M163.548 174.155L163.548 222.216L79.104 222.216L79.104 174.155L163.548 174.155ZM63.9819 246.921L79.104 246.921L79.104 236.29L163.548 236.29L163.548 246.521L179.269 246.521L179.269 159.881L63.9819 159.881L63.9819 246.921ZM46.8136 116.112L46.8136 90.9585C93.4275 87.9142 145.132 82.3744 180.117 73.7902L167.441 61.7625C136.149 69.4982 79.5032 75.2376 31.2922 78.282L31.2922 130.835C31.2922 162.327 29.246 205.846 7.33646 236.739C11.0296 238.586 17.1683 243.876 19.8134 247.17C43.1204 214.031 46.8136 164.772 46.8136 130.835L194.391 130.835L194.391 116.112L46.8136 116.112ZM355.692 175.602L355.692 220.769L256.975 220.769L256.975 175.602L355.692 175.602ZM241.603 246.521L256.975 246.521L256.975 235.492L355.692 235.492L355.692 246.122L371.663 246.122L371.663 161.079L241.603 161.079L241.603 246.521ZM326.646 90.9585C336.478 99.7423 346.909 110.373 356.291 121.003L252.034 126.144C270.051 109.175 288.217 88.1138 304.387 66.0545L289.465 59.2671C273.494 84.6203 249.788 110.373 242.452 116.911C235.714 123.698 230.374 128.19 225.882 128.988C227.529 133.081 230.174 140.667 230.773 143.911C238.758 141.066 250.636 140.667 367.371 134.079C372.462 140.417 376.754 146.356 379.798 151.696L392.674 142.463C382.044 125.495 358.537 100.591 338.724 83.2228L326.646 90.9585Z" fill="#19191A" fill-opacity="1.000000" transform="matrix(1 0 0 1 2086.51 3991.83)"/><path d="M429.306 231L448.321 231L448.321 171.51L473.025 171.51C505.765 171.51 528.223 156.787 528.223 125.096C528.223 92.4059 505.765 81.1766 472.027 81.1766L429.306 81.1766L429.306 231ZM448.321 156.188L448.321 96.4983L469.781 96.4983C496.132 96.4983 509.408 103.436 509.408 125.096C509.408 146.556 496.931 156.188 470.58 156.188L448.321 156.188ZM594.454 233.645C621.654 233.645 645.959 212.384 645.959 175.602C645.959 138.621 621.654 117.16 594.454 117.16C567.255 117.16 542.949 138.621 542.949 175.602C542.949 212.384 567.255 233.645 594.454 233.645ZM594.454 218.124C575.24 218.124 562.364 201.155 562.364 175.602C562.364 150.049 575.24 132.682 594.454 132.682C613.669 132.682 626.745 150.049 626.745 175.602C626.745 201.155 613.669 218.124 594.454 218.124ZM713.044 233.645C726.319 233.645 737.948 226.508 746.731 217.924L747.181 217.924L748.977 231L764.149 231L764.149 68.3004L745.534 68.3004L745.534 111.022L746.532 130.236C736.75 122.051 728.365 117.16 715.29 117.16C689.936 117.16 667.228 139.619 667.228 175.602C667.228 212.584 685.245 233.645 713.044 233.645ZM717.136 218.124C697.472 218.124 686.443 202.153 686.443 175.403C686.443 150.049 700.567 132.881 718.534 132.881C727.766 132.881 736.101 136.125 745.534 144.51L745.534 202.802C736.351 213.033 727.317 218.124 717.136 218.124Z" fill="#19191A" fill-opacity="1.000000" transform="matrix(1 0 0 1 2086.51 3991.83)"/><path d="M18.8153 231L37.4309 231L37.4309 150.449C48.6602 139.219 56.3959 133.48 67.8747 133.48C82.5975 133.48 88.9358 142.264 88.9358 163.125L88.9358 231L107.502 231L107.502 160.68C107.502 132.282 96.9211 117.16 73.6141 117.16C58.4421 117.16 47.0132 125.495 36.3828 135.926L35.7839 135.926L34.137 120.005L18.8153 120.005L18.8153 231ZM181.098 282.106C215.484 282.106 237.144 264.338 237.144 243.677C237.144 225.46 224.268 217.325 198.516 217.325L176.806 217.325C161.883 217.325 157.392 212.384 157.392 205.248C157.392 199.109 160.486 195.416 164.578 191.972C169.469 194.418 175.608 195.815 181.098 195.815C203.606 195.815 221.573 180.893 221.573 157.186C221.573 147.604 217.93 139.419 212.59 134.328L235.298 134.328L235.298 120.005L196.669 120.005C192.776 118.558 187.237 117.16 181.098 117.16C158.639 117.16 139.425 132.482 139.425 156.787C139.425 170.062 146.562 180.693 153.948 186.632L153.948 187.48C148.209 191.523 141.471 198.909 141.471 208.092C141.471 216.876 145.763 222.815 151.702 226.309L151.702 227.107C141.271 233.845 135.133 242.878 135.133 252.261C135.133 271.475 153.948 282.106 181.098 282.106ZM181.098 183.188C168.222 183.188 157.392 172.957 157.392 156.787C157.392 140.417 168.022 130.835 181.098 130.835C194.224 130.835 204.605 140.667 204.605 156.787C204.605 172.957 193.775 183.188 181.098 183.188ZM183.793 269.429C163.53 269.429 151.453 261.643 151.453 249.815C151.453 243.277 154.946 236.739 162.931 231C167.822 232.248 173.163 232.847 177.255 232.847L196.47 232.847C211.192 232.847 219.128 236.29 219.128 246.521C219.128 258.2 205.054 269.429 183.793 269.429ZM258.806 231L277.422 231L277.422 120.005L258.806 120.005L258.806 231ZM268.189 97.0972C275.575 97.0972 281.065 92.0066 281.065 85.0195C281.065 77.4834 275.575 72.9917 268.189 72.9917C260.853 72.9917 255.313 77.4834 255.313 85.0195C255.313 92.0066 260.853 97.0972 268.189 97.0972ZM315.022 231L333.638 231L333.638 150.449C344.867 139.219 352.603 133.48 364.082 133.48C378.805 133.48 385.143 142.264 385.143 163.125L385.143 231L403.709 231L403.709 160.68C403.709 132.282 393.128 117.16 369.821 117.16C354.649 117.16 343.22 125.495 332.59 135.926L331.991 135.926L330.344 120.005L315.022 120.005L315.022 231ZM424.153 231L443.817 231L458.739 205.048C462.582 198.31 466.275 191.523 470.168 185.185L471.216 185.185C475.259 191.523 479.351 198.31 483.044 205.048L499.414 231L519.827 231L483.244 175.003L516.982 120.005L497.568 120.005L483.843 144.51C480.599 150.648 477.305 156.787 473.861 162.926L473.013 162.926C469.37 156.787 465.477 150.648 461.983 144.51L447.061 120.005L427.048 120.005L460.786 173.157L424.153 231ZM529.227 180.893L581.581 180.893L581.581 166.619L529.227 166.619L529.227 180.893ZM611.241 231L630.256 231L630.256 171.51L654.96 171.51C687.7 171.51 710.158 156.787 710.158 125.096C710.158 92.4059 687.7 81.1766 653.962 81.1766L611.241 81.1766L611.241 231ZM630.256 156.188L630.256 96.4983L651.716 96.4983C678.068 96.4983 691.343 103.436 691.343 125.096C691.343 146.556 678.866 156.188 652.515 156.188L630.256 156.188ZM776.39 233.645C803.589 233.645 827.895 212.384 827.895 175.602C827.895 138.621 803.589 117.16 776.39 117.16C749.19 117.16 724.885 138.621 724.885 175.602C724.885 212.384 749.19 233.645 776.39 233.645ZM776.39 218.124C757.175 218.124 744.299 201.155 744.299 175.602C744.299 150.049 757.175 132.682 776.39 132.682C795.604 132.682 808.68 150.049 808.68 175.602C808.68 201.155 795.604 218.124 776.39 218.124ZM894.979 233.645C908.254 233.645 919.883 226.508 928.667 217.924L929.116 217.924L930.913 231L946.085 231L946.085 68.3004L927.469 68.3004L927.469 111.022L928.467 130.236C918.685 122.051 910.301 117.16 897.225 117.16C871.872 117.16 849.164 139.619 849.164 175.602C849.164 212.584 867.18 233.645 894.979 233.645ZM899.071 218.124C879.408 218.124 868.378 202.153 868.378 175.403C868.378 150.049 882.502 132.881 900.469 132.881C909.702 132.881 918.036 136.125 927.469 144.51L927.469 202.802C918.286 213.033 909.253 218.124 899.071 218.124Z" fill="#19191A" fill-opacity="1.000000" transform="matrix(1 0 0 1 2044.96 439.427)"/><path d="M0 0L4804.09 0L4804.09 2989.21L0 2989.21L0 0Z" fill="#FFFFFF" fill-opacity="1.000000" transform="matrix(1 0 0 1 130.563 318.828)"/><path d="M0 0L4804.09 0L4804.09 2989.21L0 2989.21L0 0Z" fill="none" stroke="#19191A" stroke-opacity="1.000000" stroke-width="2" stroke-dasharray="0 0" transform="matrix(1 0 0 1 130.563 318.828)"/><path d="M0 0L3925.5 0L3925.5 1892.93L0 1892.93L0 0Z" fill="#FFFFFF" fill-opacity="1.000000" transform="matrix(1 0 0 1 543.2 982.319)"/><path d="M0 0L3925.5 0L3925.5 1892.93L0 1892.93L0 0Z" fill="none" stroke="#19191A" stroke-opacity="1.000000" stroke-width="2" stroke-dasharray="0 0" transform="matrix(1 0 0 1 543.2 982.319)"/><path d="M0 0L1207.52 0L1207.52 896.902L0 896.902L0 0Z" fill="#FFFFFF" fill-opacity="1.000000" transform="matrix(1 0 0 1 2933.2 1621.98)"/><path d="M0 0L1207.52 0L1207.52 896.902L0 896.902L0 0Z" fill="none" stroke="#19191A" stroke-opacity="1.000000" stroke-width="2" stroke-dasharray="0 0" transform="matrix(1 0 0 1 2933.2 1621.98)"/><path d="M48.0938 136.914L239.625 136.914L239.625 174.953L261.492 174.953L261.492 116.805L163.617 116.805C159.539 106.68 151.805 92.8984 144.844 82.2109L123.82 88.8203C129.023 97.1875 134.508 107.875 138.234 116.805L27.0703 116.805L27.0703 174.953L48.0938 174.953L48.0938 136.914ZM125.297 183.039C116.367 172.914 97.9453 159.977 82.6875 151.609L69.6797 165.18C85.2188 174.391 103.359 188.453 111.727 198.297L125.297 183.039ZM41.4844 209.547C57.3047 218.758 76.6406 232.539 85.8516 242.945L98.7891 226.773C89.5781 217 69.6797 203.781 53.8594 195.133L41.4844 209.547ZM154.688 293.289C192.656 307.703 230.977 327.602 254.039 345.18L266.977 328.727C243.633 311.43 203.344 291.602 165.023 277.75L154.688 293.289ZM155.812 250.961C163.617 223.328 165.867 190.492 167.062 151.328L144.844 151.328C143.719 191.969 141.961 224.453 133.031 250.961L21.5859 250.961L21.5859 269.734L124.383 269.734C108.562 297.367 79.1719 316.07 24.4688 327.602C29.1094 332.172 34.2422 340.258 36.5625 346.023C100.547 331.328 132.75 306.297 149.203 269.734L268.102 269.734L268.102 250.961L155.812 250.961ZM381.585 127.422L381.585 190.211L332.648 190.211L332.648 127.422L381.585 127.422ZM332.648 274.586L332.648 209.547L381.585 209.547L381.585 274.586L332.648 274.586ZM401.765 108.156L312.468 108.156L312.468 316.914L332.648 316.914L332.648 294.203L401.765 294.203L401.765 108.156ZM563.906 141.555L529.031 141.555L529.031 85.6562L507.726 85.6562L507.726 141.555L414.703 141.555L414.703 162.578L507.726 162.578L507.726 315.227C507.726 320.992 505.406 322.68 499.71 322.961C493.312 323.242 472.007 323.242 449.859 322.68C453.304 328.445 456.468 338.219 457.664 343.984C486.421 344.266 504.562 343.984 514.687 340.258C524.742 337.094 529.031 330.484 529.031 315.227L529.031 162.578L563.906 162.578L563.906 141.555ZM486.984 254.125C477.492 236.898 457.312 207.508 442.054 185.641L424.546 194.852C439.804 217 459.07 247.516 468.281 265.094L486.984 254.125ZM703.897 89.3828C698.976 100.914 689.483 117.367 682.241 127.703L696.093 134.312C704.179 124.82 713.39 110.406 721.757 97.4688L703.897 89.3828ZM636.468 128.266C633.585 117.648 625.851 102.391 617.765 91.1406L602.226 97.4688C609.96 109.281 617.483 125.102 620.085 135.227L636.468 128.266ZM650.601 208.914L670.429 208.914L670.429 169.469C684.28 179.242 702.14 193.375 709.03 199.984L720.843 184.445C714.233 179.594 689.483 163.422 675.069 155.055L729.21 155.055L729.21 137.195L670.429 137.195L670.429 83.9688L650.601 83.9688L650.601 137.195L591.257 137.195L591.257 155.055L643.991 155.055C629.858 173.828 608.554 191.336 588.374 199.984C592.382 204.062 597.585 211.234 599.905 216.156C617.483 206.945 636.187 191.055 650.601 174.109L650.601 208.914ZM694.335 250.117C688.007 265.094 678.796 277.75 667.616 288.156C657.21 282.953 645.679 277.469 635.062 272.898C639.069 266.219 643.358 258.203 647.718 250.117L694.335 250.117ZM708.468 312.062C702.14 307.422 693.491 302.219 684.28 297.086C699.538 280.914 711.351 260.805 718.874 235.984L706.78 231.133L703.616 231.977L656.647 231.977C658.968 226.773 660.655 221.922 662.694 217L643.71 213.555C641.671 219.602 639.069 225.648 636.187 231.977L597.304 231.977L597.304 250.117L627.257 250.117C621.21 261.367 614.882 271.984 608.835 280.633C622.968 285.836 638.507 293.008 652.921 300.531C634.147 313.75 612.28 322.961 588.937 328.164C592.733 332.172 597.022 339.977 599.062 344.617C625.218 337.656 649.757 326.406 670.147 310.023C679.991 315.508 688.64 321.273 695.249 326.125L708.468 312.062ZM808.382 159.414C804.093 192.531 797.202 221.289 786.796 245.547C775.897 219.883 767.812 190.492 762.327 159.414L808.382 159.414ZM847.897 159.414L847.897 139.516L766.687 139.516C770.694 123.414 774.14 106.68 776.46 89.7344L756.843 86.8516C749.671 136.633 736.733 184.727 714.796 214.961C719.437 217.844 727.452 224.453 730.968 227.969C738.14 217 744.749 204.344 750.515 190.211C756.843 218.758 764.929 244.633 775.897 267.133C759.726 294.484 737.296 315.508 706.147 330.766C709.944 334.773 715.991 343.422 717.96 348.062C747.351 332.172 769.218 312.062 786.233 286.961C800.366 311.43 818.507 331.047 840.655 344.617C843.819 339.133 849.866 331.891 854.788 327.883C830.882 315.227 812.179 293.922 797.483 267.695C812.741 238.023 822.233 202.305 828.843 159.414L847.897 159.414ZM965.67 228.812L962.788 209.195L932.834 218.758L932.834 161.734L965.389 161.734L965.389 141.836L932.834 141.836L932.834 84.25L912.936 84.25L912.936 141.836L877.217 141.836L877.217 161.734L912.936 161.734L912.936 224.805C897.959 229.094 884.459 233.102 873.772 236.266L878.975 256.727C889.311 253.562 900.842 250.117 912.936 246.109L912.936 320.078C912.936 324.438 911.53 325.562 908.084 325.562C904.92 325.562 893.389 325.562 881.014 325.281C883.897 331.328 886.428 339.977 887.342 345.18C905.483 345.461 916.381 344.617 923.061 341.102C930.233 337.656 932.834 332.172 932.834 320.359L932.834 239.43L965.67 228.812ZM998.506 202.305C998.788 195.414 998.788 189.367 998.788 183.039L998.788 170.664L1054.33 170.664L1054.33 202.305L998.506 202.305ZM1108.48 115.328L1108.48 151.891L998.788 151.891L998.788 115.328L1108.48 115.328ZM1110.51 317.828L1022.13 317.828L1022.13 274.305L1110.51 274.305L1110.51 317.828ZM1138.78 220.727L1138.78 202.305L1074.8 202.305L1074.8 170.664L1128.94 170.664L1128.94 96.625L978.045 96.625L978.045 183.039C978.045 228.531 975.444 291.039 945.772 335.055C950.694 337.094 959.624 343.141 963.069 347.148C987.256 311.781 995.061 263.336 997.663 220.727L1054.33 220.727L1054.33 256.164L1003.36 256.164L1003.36 347.43L1022.13 347.43L1022.13 335.688L1110.51 335.688L1110.51 346.305L1130.13 346.305L1130.13 256.164L1074.8 256.164L1074.8 220.727L1138.78 220.727Z" fill="#19191A" fill-opacity="1.000000" transform="matrix(1 0 0 1 2953.76 1851.73)"/><path d="M0 0L1516.19 0L1516.19 896.902L0 896.902L0 0Z" fill="#FFFFFF" fill-opacity="1.000000" transform="matrix(1 0 0 1 912.106 1632.15)"/><path d="M0 0L1516.19 0L1516.19 896.902L0 896.902L0 0Z" fill="none" stroke="#19191A" stroke-opacity="1.000000" stroke-width="2" stroke-dasharray="0 0" transform="matrix(1 0 0 1 912.106 1632.15)"/><path d="M102.234 127.703L23.9062 127.703L23.9062 148.727L102.234 148.727L102.234 191.969L28.1953 191.969L28.1953 212.359L102.234 212.359L102.234 257.289L17.2969 257.289L17.2969 278.031L102.234 278.031L102.234 346.867L123.82 346.867L123.82 85.375L102.234 85.375L102.234 127.703ZM274.781 257.289L188.648 257.289L188.648 212.359L264.094 212.359L264.094 191.969L188.648 191.969L188.648 148.727L269.859 148.727L269.859 127.703L188.648 127.703L188.648 85.6562L166.781 85.6562L166.781 347.148L188.648 347.148L188.648 278.312L274.781 278.312L274.781 257.289ZM336.093 136.914L527.625 136.914L527.625 174.953L549.492 174.953L549.492 116.805L451.617 116.805C447.539 106.68 439.804 92.8984 432.843 82.2109L411.82 88.8203C417.023 97.1875 422.507 107.875 426.234 116.805L315.07 116.805L315.07 174.953L336.093 174.953L336.093 136.914ZM413.296 183.039C404.367 172.914 385.945 159.977 370.687 151.609L357.679 165.18C373.218 174.391 391.359 188.453 399.726 198.297L413.296 183.039ZM329.484 209.547C345.304 218.758 364.64 232.539 373.851 242.945L386.789 226.773C377.578 217 357.679 203.781 341.859 195.133L329.484 209.547ZM442.687 293.289C480.656 307.703 518.976 327.602 542.039 345.18L554.976 328.727C531.632 311.43 491.343 291.602 453.023 277.75L442.687 293.289ZM443.812 250.961C451.617 223.328 453.867 190.492 455.062 151.328L432.843 151.328C431.718 191.969 429.96 224.453 421.031 250.961L309.585 250.961L309.585 269.734L412.382 269.734C396.562 297.367 367.171 316.07 312.468 327.602C317.109 332.172 322.242 340.258 324.562 346.023C388.546 331.328 420.75 306.297 437.203 269.734L556.101 269.734L556.101 250.961L443.812 250.961ZM669.585 127.422L669.585 190.211L620.647 190.211L620.647 127.422L669.585 127.422ZM620.647 274.586L620.647 209.547L669.585 209.547L669.585 274.586L620.647 274.586ZM689.765 108.156L600.468 108.156L600.468 316.914L620.647 316.914L620.647 294.203L689.765 294.203L689.765 108.156ZM851.905 141.555L817.03 141.555L817.03 85.6562L795.726 85.6562L795.726 141.555L702.702 141.555L702.702 162.578L795.726 162.578L795.726 315.227C795.726 320.992 793.405 322.68 787.71 322.961C781.312 323.242 760.007 323.242 737.858 322.68C741.304 328.445 744.468 338.219 745.663 343.984C774.421 344.266 792.562 343.984 802.687 340.258C812.741 337.094 817.03 330.484 817.03 315.227L817.03 162.578L851.905 162.578L851.905 141.555ZM774.983 254.125C765.491 236.898 745.312 207.508 730.054 185.641L712.546 194.852C727.804 217 747.069 247.516 756.28 265.094L774.983 254.125ZM991.897 89.3828C986.975 100.914 977.483 117.367 970.241 127.703L984.092 134.312C992.178 124.82 1001.39 110.406 1009.76 97.4688L991.897 89.3828ZM924.467 128.266C921.584 117.648 913.85 102.391 905.764 91.1406L890.225 97.4688C897.959 109.281 905.483 125.102 908.084 135.227L924.467 128.266ZM938.6 208.914L958.428 208.914L958.428 169.469C972.28 179.242 990.139 193.375 997.03 199.984L1008.84 184.445C1002.23 179.594 977.483 163.422 963.069 155.055L1017.21 155.055L1017.21 137.195L958.428 137.195L958.428 83.9688L938.6 83.9688L938.6 137.195L879.256 137.195L879.256 155.055L931.991 155.055C917.858 173.828 896.553 191.336 876.374 199.984C880.381 204.062 885.584 211.234 887.905 216.156C905.483 206.945 924.186 191.055 938.6 174.109L938.6 208.914ZM982.334 250.117C976.006 265.094 966.795 277.75 955.616 288.156C945.209 282.953 933.678 277.469 923.061 272.898C927.069 266.219 931.358 258.203 935.717 250.117L982.334 250.117ZM996.467 312.062C990.139 307.422 981.491 302.219 972.28 297.086C987.538 280.914 999.35 260.805 1006.87 235.984L994.78 231.133L991.616 231.977L944.647 231.977C946.967 226.773 948.655 221.922 950.694 217L931.709 213.555C929.67 219.602 927.069 225.648 924.186 231.977L885.303 231.977L885.303 250.117L915.256 250.117C909.209 261.367 902.881 271.984 896.834 280.633C910.967 285.836 926.506 293.008 940.92 300.531C922.147 313.75 900.28 322.961 876.936 328.164C880.733 332.172 885.022 339.977 887.061 344.617C913.217 337.656 937.756 326.406 958.147 310.023C967.991 315.508 976.639 321.273 983.249 326.125L996.467 312.062ZM1096.38 159.414C1092.09 192.531 1085.2 221.289 1074.8 245.547C1063.9 219.883 1055.81 190.492 1050.33 159.414L1096.38 159.414ZM1135.9 159.414L1135.9 139.516L1054.69 139.516C1058.69 123.414 1062.14 106.68 1064.46 89.7344L1044.84 86.8516C1037.67 136.633 1024.73 184.727 1002.8 214.961C1007.44 217.844 1015.45 224.453 1018.97 227.969C1026.14 217 1032.75 204.344 1038.51 190.211C1044.84 218.758 1052.93 244.633 1063.9 267.133C1047.73 294.484 1025.3 315.508 994.147 330.766C997.944 334.773 1003.99 343.422 1005.96 348.062C1035.35 332.172 1057.22 312.062 1074.23 286.961C1088.37 311.43 1106.51 331.047 1128.65 344.617C1131.82 339.133 1137.87 331.891 1142.79 327.883C1118.88 315.227 1100.18 293.922 1085.48 267.695C1100.74 238.023 1110.23 202.305 1116.84 159.414L1135.9 159.414ZM1253.67 228.812L1250.79 209.195L1220.83 218.758L1220.83 161.734L1253.39 161.734L1253.39 141.836L1220.83 141.836L1220.83 84.25L1200.94 84.25L1200.94 141.836L1165.22 141.836L1165.22 161.734L1200.94 161.734L1200.94 224.805C1185.96 229.094 1172.46 233.102 1161.77 236.266L1166.97 256.727C1177.31 253.562 1188.84 250.117 1200.94 246.109L1200.94 320.078C1200.94 324.438 1199.53 325.562 1196.08 325.562C1192.92 325.562 1181.39 325.562 1169.01 325.281C1171.9 331.328 1174.43 339.977 1175.34 345.18C1193.48 345.461 1204.38 344.617 1211.06 341.102C1218.23 337.656 1220.83 332.172 1220.83 320.359L1220.83 239.43L1253.67 228.812ZM1286.51 202.305C1286.79 195.414 1286.79 189.367 1286.79 183.039L1286.79 170.664L1342.33 170.664L1342.33 202.305L1286.51 202.305ZM1396.47 115.328L1396.47 151.891L1286.79 151.891L1286.79 115.328L1396.47 115.328ZM1398.51 317.828L1310.13 317.828L1310.13 274.305L1398.51 274.305L1398.51 317.828ZM1426.78 220.727L1426.78 202.305L1362.79 202.305L1362.79 170.664L1416.94 170.664L1416.94 96.625L1266.04 96.625L1266.04 183.039C1266.04 228.531 1263.44 291.039 1233.77 335.055C1238.69 337.094 1247.62 343.141 1251.07 347.148C1275.26 311.781 1283.06 263.336 1285.66 220.727L1342.33 220.727L1342.33 256.164L1291.36 256.164L1291.36 347.43L1310.13 347.43L1310.13 335.688L1398.51 335.688L1398.51 346.305L1418.13 346.305L1418.13 256.164L1362.79 256.164L1362.79 220.727L1426.78 220.727Z" fill="#19191A" fill-opacity="1.000000" transform="matrix(1 0 0 1 942.997 1895.32)"/><path d="M0 44Q-0.54007 44 -1.07949 43.9735Q-1.61891 43.947 -2.15638 43.8941Q-2.69385 43.8411 -3.22807 43.7619Q-3.76229 43.6826 -4.29199 43.5773Q-4.82168 43.4719 -5.34556 43.3407Q-5.86945 43.2095 -6.38626 43.0527Q-6.90308 42.8959 -7.41158 42.714Q-7.92007 42.532 -8.41903 42.3253Q-8.91799 42.1187 -9.40621 41.8878Q-9.89443 41.6569 -10.3707 41.4023Q-10.847 41.1477 -11.3103 40.87Q-11.7735 40.5924 -12.2225 40.2923Q-12.6716 39.9923 -13.1054 39.6706Q-13.5392 39.3488 -13.9567 39.0062Q-14.3741 38.6636 -14.7743 38.3009Q-15.1745 37.9382 -15.5563 37.5563Q-15.9382 37.1745 -16.3009 36.7743Q-16.6636 36.3741 -17.0062 35.9567Q-17.3488 35.5392 -17.6706 35.1054Q-17.9923 34.6716 -18.2923 34.2225Q-18.5924 33.7735 -18.87 33.3103Q-19.1477 32.847 -19.4023 32.3707Q-19.6569 31.8944 -19.8878 31.4062Q-20.1187 30.918 -20.3253 30.419Q-20.532 29.9201 -20.714 29.4116Q-20.8959 28.9031 -21.0527 28.3863Q-21.2095 27.8694 -21.3407 27.3456Q-21.4719 26.8217 -21.5773 26.292Q-21.6826 25.7623 -21.7619 25.2281Q-21.8411 24.6938 -21.8941 24.1564Q-21.947 23.6189 -21.9735 23.0795Q-22 22.5401 -22 22Q-22 21.4599 -21.9735 20.9205Q-21.947 20.3811 -21.8941 19.8436Q-21.8411 19.3062 -21.7619 18.7719Q-21.6826 18.2377 -21.5773 17.708Q-21.4719 17.1783 -21.3407 16.6544Q-21.2095 16.1305 -21.0527 15.6137Q-20.8959 15.0969 -20.714 14.5884Q-20.532 14.0799 -20.3253 13.581Q-20.1187 13.082 -19.8878 12.5938Q-19.6569 12.1056 -19.4023 11.6293Q-19.1477 11.153 -18.87 10.6897Q-18.5924 10.2265 -18.2923 9.77745Q-17.9923 9.3284 -17.6706 8.89461Q-17.3488 8.46083 -17.0062 8.04335Q-16.6636 7.62587 -16.3009 7.2257Q-15.9382 6.82554 -15.5563 6.44365Q-15.1745 6.06176 -14.7743 5.69907Q-14.3741 5.33639 -13.9567 4.99377Q-13.5392 4.65115 -13.1054 4.32943Q-12.6716 4.00771 -12.2225 3.70767Q-11.7735 3.40762 -11.3103 3.12997Q-10.847 2.85232 -10.3707 2.59773Q-9.89443 2.34314 -9.40621 2.11224Q-8.91799 1.88133 -8.41903 1.67465Q-7.92007 1.46797 -7.41158 1.28603Q-6.90308 1.10409 -6.38626 0.947312Q-5.86945 0.790539 -5.34556 0.659312Q-4.82168 0.528086 -4.29199 0.422724Q-3.76229 0.317361 -3.22807 0.238117Q-2.69385 0.158872 -2.15638 0.105936Q-1.61891 0.0529999 -1.07949 0.0265Q-0.54007 0 0 0Q0.54007 0 1.07949 0.0265Q1.61891 0.0529999 2.15638 0.105936Q2.69385 0.158872 3.22807 0.238117Q3.76229 0.317361 4.29199 0.422724Q4.82168 0.528086 5.34556 0.659312Q5.86945 0.790539 6.38626 0.947312Q6.90308 1.10409 7.41158 1.28603Q7.92007 1.46797 8.41903 1.67465Q8.91799 1.88133 9.40621 2.11223Q9.89443 2.34314 10.3707 2.59773Q10.847 2.85232 11.3103 3.12997Q11.7735 3.40762 12.2225 3.70767Q12.6716 4.00771 13.1054 4.32943Q13.5392 4.65115 13.9567 4.99377Q14.3741 5.33639 14.7743 5.69907Q15.1745 6.06176 15.5563 6.44365Q15.9382 6.82554 16.3009 7.2257Q16.6636 7.62587 17.0062 8.04335Q17.3488 8.46083 17.6706 8.89462Q17.9923 9.3284 18.2923 9.77745Q18.5924 10.2265 18.87 10.6897Q19.1477 11.153 19.4023 11.6293Q19.6569 12.1056 19.8878 12.5938Q20.1187 13.082 20.3253 13.581Q20.532 14.0799 20.714 14.5884Q20.8959 15.0969 21.0527 15.6137Q21.2095 16.1305 21.3407 16.6544Q21.4719 17.1783 21.5773 17.708Q21.6826 18.2377 21.7619 18.7719Q21.8411 19.3062 21.8941 19.8436Q21.947 20.3811 21.9735 20.9205Q22 21.4599 22 22Q22 22.5401 21.9735 23.0795Q21.947 23.6189 21.8941 24.1564Q21.8411 24.6938 21.7619 25.2281Q21.6826 25.7623 21.5773 26.292Q21.4719 26.8217 21.3407 27.3456Q21.2095 27.8694 21.0527 28.3863Q20.8959 28.9031 20.714 29.4116Q20.532 29.9201 20.3253 30.419Q20.1187 30.918 19.8878 31.4062Q19.6569 31.8944 19.4023 32.3707Q19.1477 32.847 18.87 33.3103Q18.5924 33.7735 18.2923 34.2225Q17.9923 34.6716 17.6706 35.1054Q17.3488 35.5392 17.0062 35.9567Q16.6636 36.3741 16.3009 36.7743Q15.9382 37.1745 15.5563 37.5563Q15.1745 37.9382 14.7743 38.3009Q14.3741 38.6636 13.9567 39.0062Q13.5392 39.3488 13.1054 39.6706Q12.6716 39.9923 12.2225 40.2923Q11.7735 40.5924 11.3103 40.87Q10.847 41.1477 10.3707 41.4023Q9.89443 41.6569 9.40621 41.8878Q8.91799 42.1187 8.41903 42.3253Q7.92007 42.532 7.41158 42.714Q6.90308 42.8959 6.38626 43.0527Q5.86945 43.2095 5.34556 43.3407Q4.82168 43.4719 4.29199 43.5773Q3.76229 43.6826 3.22807 43.7619Q2.69385 43.8411 2.15638 43.8941Q1.61891 43.947 1.07949 43.9735Q0.54007 44 0 44Z" transform="matrix(1 0 0 1 3536.96 2518.89)" stroke="#000000" stroke-width="10.000000" stroke-opacity="1.000000" fill="none"/><path d="M0 1004.83Q0.54007 1004.83 1.07949 1004.86Q1.61891 1004.88 2.15638 1004.94Q2.69385 1004.99 3.22807 1005.07Q3.76229 1005.15 4.29199 1005.25Q4.82168 1005.36 5.34556 1005.49Q5.86945 1005.62 6.38626 1005.78Q6.90308 1005.93 7.41158 1006.12Q7.92007 1006.3 8.41903 1006.51Q8.91799 1006.71 9.40621 1006.94Q9.89443 1007.17 10.3707 1007.43Q10.847 1007.68 11.3103 1007.96Q11.7735 1008.24 12.2225 1008.54Q12.6716 1008.84 13.1054 1009.16Q13.5392 1009.48 13.9567 1009.82Q14.3741 1010.17 14.7743 1010.53Q15.1745 1010.89 15.5563 1011.27Q15.9382 1011.66 16.3009 1012.06Q16.6636 1012.46 17.0062 1012.87Q17.3488 1013.29 17.6706 1013.73Q17.9923 1014.16 18.2923 1014.61Q18.5924 1015.06 18.87 1015.52Q19.1477 1015.98 19.4023 1016.46Q19.6569 1016.94 19.8878 1017.42Q20.1187 1017.91 20.3253 1018.41Q20.532 1018.91 20.714 1019.42Q20.8959 1019.93 21.0527 1020.44Q21.2095 1020.96 21.3407 1021.48Q21.4719 1022.01 21.5773 1022.54Q21.6826 1023.07 21.7619 1023.6Q21.8411 1024.14 21.8941 1024.67Q21.947 1025.21 21.9735 1025.75Q22 1026.29 22 1026.83Q22 1027.37 21.9735 1027.91Q21.947 1028.45 21.8941 1028.99Q21.8411 1029.52 21.7619 1030.06Q21.6826 1030.59 21.5773 1031.12Q21.4719 1031.65 21.3407 1032.18Q21.2095 1032.7 21.0527 1033.22Q20.8959 1033.73 20.714 1034.24Q20.532 1034.75 20.3253 1035.25Q20.1187 1035.75 19.8878 1036.24Q19.6569 1036.72 19.4023 1037.2Q19.1477 1037.68 18.87 1038.14Q18.5924 1038.6 18.2923 1039.05Q17.9923 1039.5 17.6706 1039.94Q17.3488 1040.37 17.0062 1040.79Q16.6636 1041.2 16.3009 1041.6Q15.9382 1042.01 15.5563 1042.39Q15.1745 1042.77 14.7743 1043.13Q14.3741 1043.49 13.9567 1043.84Q13.5392 1044.18 13.1054 1044.5Q12.6716 1044.82 12.2225 1045.12Q11.7735 1045.42 11.3103 1045.7Q10.847 1045.98 10.3707 1046.23Q9.89443 1046.49 9.40621 1046.72Q8.91799 1046.95 8.41903 1047.16Q7.92007 1047.36 7.41158 1047.54Q6.90308 1047.73 6.38626 1047.88Q5.86945 1048.04 5.34556 1048.17Q4.82168 1048.3 4.29199 1048.41Q3.76229 1048.51 3.22807 1048.59Q2.69385 1048.67 2.15638 1048.72Q1.61891 1048.78 1.07949 1048.8Q0.54007 1048.83 0 1048.83Q-0.54007 1048.83 -1.07949 1048.8Q-1.61891 1048.78 -2.15638 1048.72Q-2.69385 1048.67 -3.22807 1048.59Q-3.76229 1048.51 -4.29199 1048.41Q-4.82168 1048.3 -5.34556 1048.17Q-5.86945 1048.04 -6.38626 1047.88Q-6.90308 1047.73 -7.41158 1047.54Q-7.92007 1047.36 -8.41903 1047.16Q-8.91799 1046.95 -9.40621 1046.72Q-9.89443 1046.49 -10.3707 1046.23Q-10.847 1045.98 -11.3103 1045.7Q-11.7735 1045.42 -12.2225 1045.12Q-12.6716 1044.82 -13.1054 1044.5Q-13.5392 1044.18 -13.9567 1043.84Q-14.3741 1043.49 -14.7743 1043.13Q-15.1745 1042.77 -15.5563 1042.39Q-15.9382 1042.01 -16.3009 1041.6Q-16.6636 1041.2 -17.0062 1040.79Q-17.3488 1040.37 -17.6706 1039.94Q-17.9923 1039.5 -18.2923 1039.05Q-18.5924 1038.6 -18.87 1038.14Q-19.1477 1037.68 -19.4023 1037.2Q-19.6569 1036.72 -19.8878 1036.24Q-20.1187 1035.75 -20.3253 1035.25Q-20.532 1034.75 -20.714 1034.24Q-20.8959 1033.73 -21.0527 1033.22Q-21.2095 1032.7 -21.3407 1032.18Q-21.4719 1031.65 -21.5773 1031.12Q-21.6826 1030.59 -21.7619 1030.06Q-21.8411 1029.52 -21.8941 1028.99Q-21.947 1028.45 -21.9735 1027.91Q-22 1027.37 -22 1026.83Q-22 1026.29 -21.9735 1025.75Q-21.947 1025.21 -21.8941 1024.67Q-21.8411 1024.14 -21.7619 1023.6Q-21.6826 1023.07 -21.5773 1022.54Q-21.4719 1022.01 -21.3407 1021.48Q-21.2095 1020.96 -21.0527 1020.44Q-20.8959 1019.93 -20.714 1019.42Q-20.532 1018.91 -20.3253 1018.41Q-20.1187 1017.91 -19.8878 1017.42Q-19.6569 1016.94 -19.4023 1016.46Q-19.1477 1015.98 -18.87 1015.52Q-18.5924 1015.06 -18.2923 1014.61Q-17.9923 1014.16 -17.6706 1013.73Q-17.3488 1013.29 -17.0062 1012.87Q-16.6636 1012.46 -16.3009 1012.06Q-15.9382 1011.66 -15.5563 1011.27Q-15.1745 1010.89 -14.7743 1010.53Q-14.3741 1010.17 -13.9567 1009.82Q-13.5392 1009.48 -13.1054 1009.16Q-12.6716 1008.84 -12.2225 1008.54Q-11.7735 1008.24 -11.3103 1007.96Q-10.847 1007.68 -10.3707 1007.43Q-9.89443 1007.17 -9.40621 1006.94Q-8.91799 1006.71 -8.41903 1006.51Q-7.92007 1006.3 -7.41158 1006.12Q-6.90308 1005.93 -6.38626 1005.78Q-5.86945 1005.62 -5.34556 1005.49Q-4.82168 1005.36 -4.29199 1005.25Q-3.76229 1005.15 -3.22807 1005.07Q-2.69385 1004.99 -2.15638 1004.94Q-1.61891 1004.88 -1.07949 1004.86Q-0.54007 1004.83 0 1004.83Z" transform="matrix(1 0 0 1 3536.96 2518.89)" stroke="#000000" stroke-width="10.000000" stroke-opacity="1.000000" fill="none"/><path d="M0 44L6.10352e-05 1004.83" fill="none" stroke="#000000" stroke-opacity="1.000000" stroke-width="10" stroke-linejoin="round" stroke-dasharray="20 20" transform="matrix(1 0 0 1 3536.96 2518.89)"/><path d="M0 0L0 1022.15" fill="none" stroke="#000000" stroke-opacity="1.000000" stroke-width="10" stroke-linejoin="round" stroke-dasharray="20 20" transform="matrix(1 0 0 1 1670.2 2529.05)"/><path d="M20.4622 231L38.4291 231L38.4291 152.295C38.4291 136.574 36.9817 120.604 36.1832 105.482L36.9817 105.482L53.1519 136.375L107.751 231L127.165 231L127.165 81.1766L109.148 81.1766L109.148 159.033C109.148 174.604 110.596 191.323 111.594 206.445L110.596 206.445L94.6253 175.602L40.076 81.1766L20.4622 81.1766L20.4622 231ZM203.789 282.106C238.175 282.106 259.835 264.338 259.835 243.677C259.835 225.46 246.959 217.325 221.207 217.325L199.497 217.325C184.574 217.325 180.083 212.384 180.083 205.248C180.083 199.109 183.177 195.416 187.269 191.972C192.16 194.418 198.299 195.815 203.789 195.815C226.297 195.815 244.264 180.893 244.264 157.186C244.264 147.604 240.621 139.419 235.281 134.328L257.989 134.328L257.989 120.005L219.36 120.005C215.467 118.558 209.927 117.16 203.789 117.16C181.33 117.16 162.116 132.482 162.116 156.787C162.116 170.062 169.253 180.693 176.639 186.632L176.639 187.48C170.9 191.523 164.162 198.909 164.162 208.092C164.162 216.876 168.454 222.815 174.393 226.309L174.393 227.107C163.962 233.845 157.824 242.878 157.824 252.261C157.824 271.475 176.639 282.106 203.789 282.106ZM203.789 183.188C190.913 183.188 180.083 172.957 180.083 156.787C180.083 140.417 190.713 130.835 203.789 130.835C216.915 130.835 227.295 140.667 227.295 156.787C227.295 172.957 216.465 183.188 203.789 183.188ZM206.484 269.429C186.221 269.429 174.144 261.643 174.144 249.815C174.144 243.277 177.637 236.739 185.622 231C190.513 232.248 195.853 232.847 199.946 232.847L219.16 232.847C233.883 232.847 241.819 236.29 241.819 246.521C241.819 258.2 227.745 269.429 206.484 269.429ZM281.497 231L300.113 231L300.113 120.005L281.497 120.005L281.497 231ZM290.88 97.0972C298.266 97.0972 303.756 92.0066 303.756 85.0195C303.756 77.4834 298.266 72.9917 290.88 72.9917C283.543 72.9917 278.004 77.4834 278.004 85.0195C278.004 92.0066 283.543 97.0972 290.88 97.0972ZM337.713 231L356.329 231L356.329 150.449C367.558 139.219 375.294 133.48 386.773 133.48C401.495 133.48 407.834 142.264 407.834 163.125L407.834 231L426.399 231L426.399 160.68C426.399 132.282 415.819 117.16 392.512 117.16C377.34 117.16 365.911 125.495 355.281 135.926L354.682 135.926L353.035 120.005L337.713 120.005L337.713 231ZM446.844 231L466.508 231L481.43 205.048C485.273 198.31 488.966 191.523 492.859 185.185L493.907 185.185C497.95 191.523 502.042 198.31 505.735 205.048L522.105 231L542.517 231L505.935 175.003L539.673 120.005L520.258 120.005L506.534 144.51C503.29 150.648 499.996 156.787 496.552 162.926L495.704 162.926C492.061 156.787 488.168 150.648 484.674 144.51L469.752 120.005L449.739 120.005L483.476 173.157L446.844 231Z" fill="#19191A" fill-opacity="1.000000" transform="matrix(1 0 0 1 2254.7 1089.26)"/><path d="M0 0L4804.09 0L4804.09 1036.93L0 1036.93L0 0Z" fill="#FFFFFF" fill-opacity="1.000000" transform="matrix(1 0 0 1 130.563 3567.69)"/><path d="M0 0L4804.09 0L4804.09 1036.93L0 1036.93L0 0Z" fill="none" stroke="#19191A" stroke-opacity="1.000000" stroke-width="2" stroke-dasharray="0 0" transform="matrix(1 0 0 1 130.563 3567.69)"/><path d="M163.548 174.155L163.548 222.216L79.104 222.216L79.104 174.155L163.548 174.155ZM63.9819 246.921L79.104 246.921L79.104 236.29L163.548 236.29L163.548 246.521L179.269 246.521L179.269 159.881L63.9819 159.881L63.9819 246.921ZM46.8136 116.112L46.8136 90.9585C93.4275 87.9142 145.132 82.3744 180.117 73.7902L167.441 61.7625C136.149 69.4982 79.5032 75.2376 31.2922 78.282L31.2922 130.835C31.2922 162.327 29.246 205.846 7.33646 236.739C11.0296 238.586 17.1683 243.876 19.8134 247.17C43.1204 214.031 46.8136 164.772 46.8136 130.835L194.391 130.835L194.391 116.112L46.8136 116.112ZM355.692 175.602L355.692 220.769L256.975 220.769L256.975 175.602L355.692 175.602ZM241.603 246.521L256.975 246.521L256.975 235.492L355.692 235.492L355.692 246.122L371.663 246.122L371.663 161.079L241.603 161.079L241.603 246.521ZM326.646 90.9585C336.478 99.7423 346.909 110.373 356.291 121.003L252.034 126.144C270.051 109.175 288.217 88.1138 304.387 66.0545L289.465 59.2671C273.494 84.6203 249.788 110.373 242.452 116.911C235.714 123.698 230.374 128.19 225.882 128.988C227.529 133.081 230.174 140.667 230.773 143.911C238.758 141.066 250.636 140.667 367.371 134.079C372.462 140.417 376.754 146.356 379.798 151.696L392.674 142.463C382.044 125.495 358.537 100.591 338.724 83.2228L326.646 90.9585Z" fill="#19191A" fill-opacity="1.000000" transform="matrix(1 0 0 1 2086.51 3991.83)"/><path d="M429.306 231L448.321 231L448.321 171.51L473.025 171.51C505.765 171.51 528.223 156.787 528.223 125.096C528.223 92.4059 505.765 81.1766 472.027 81.1766L429.306 81.1766L429.306 231ZM448.321 156.188L448.321 96.4983L469.781 96.4983C496.132 96.4983 509.408 103.436 509.408 125.096C509.408 146.556 496.931 156.188 470.58 156.188L448.321 156.188ZM594.454 233.645C621.654 233.645 645.959 212.384 645.959 175.602C645.959 138.621 621.654 117.16 594.454 117.16C567.255 117.16 542.949 138.621 542.949 175.602C542.949 212.384 567.255 233.645 594.454 233.645ZM594.454 218.124C575.24 218.124 562.364 201.155 562.364 175.602C562.364 150.049 575.24 132.682 594.454 132.682C613.669 132.682 626.745 150.049 626.745 175.602C626.745 201.155 613.669 218.124 594.454 218.124ZM713.044 233.645C726.319 233.645 737.948 226.508 746.731 217.924L747.181 217.924L748.977 231L764.149 231L764.149 68.3004L745.534 68.3004L745.534 111.022L746.532 130.236C736.75 122.051 728.365 117.16 715.29 117.16C689.936 117.16 667.228 139.619 667.228 175.602C667.228 212.584 685.245 233.645 713.044 233.645ZM717.136 218.124C697.472 218.124 686.443 202.153 686.443 175.403C686.443 150.049 700.567 132.881 718.534 132.881C727.766 132.881 736.101 136.125 745.534 144.51L745.534 202.802C736.351 213.033 727.317 218.124 717.136 218.124Z" fill="#19191A" fill-opacity="1.000000" transform="matrix(1 0 0 1 2086.51 3991.83)"/><path d="M18.8153 231L37.4309 231L37.4309 150.449C48.6602 139.219 56.3959 133.48 67.8747 133.48C82.5975 133.48 88.9358 142.264 88.9358 163.125L88.9358 231L107.502 231L107.502 160.68C107.502 132.282 96.9211 117.16 73.6141 117.16C58.4421 117.16 47.0132 125.495 36.3828 135.926L35.7839 135.926L34.137 120.005L18.8153 120.005L18.8153 231ZM181.098 282.106C215.484 282.106 237.144 264.338 237.144 243.677C237.144 225.46 224.268 217.325 198.516 217.325L176.806 217.325C161.883 217.325 157.392 212.384 157.392 205.248C157.392 199.109 160.486 195.416 164.578 191.972C169.469 194.418 175.608 195.815 181.098 195.815C203.606 195.815 221.573 180.893 221.573 157.186C221.573 147.604 217.93 139.419 212.59 134.328L235.298 134.328L235.298 120.005L196.669 120.005C192.776 118.558 187.237 117.16 181.098 117.16C158.639 117.16 139.425 132.482 139.425 156.787C139.425 170.062 146.562 180.693 153.948 186.632L153.948 187.48C148.209 191.523 141.471 198.909 141.471 208.092C141.471 216.876 145.763 222.815 151.702 226.309L151.702 227.107C141.271 233.845 135.133 242.878 135.133 252.261C135.133 271.475 153.948 282.106 181.098 282.106ZM181.098 183.188C168.222 183.188 157.392 172.957 157.392 156.787C157.392 140.417 168.022 130.835 181.098 130.835C194.224 130.835 204.605 140.667 204.605 156.787C204.605 172.957 193.775 183.188 181.098 183.188ZM183.793 269.429C163.53 269.429 151.453 261.643 151.453 249.815C151.453 243.277 154.946 236.739 162.931 231C167.822 232.248 173.163 232.847 177.255 232.847L196.47 232.847C211.192 232.847 219.128 236.29 219.128 246.521C219.128 258.2 205.054 269.429 183.793 269.429ZM258.806 231L277.422 231L277.422 120.005L258.806 120.005L258.806 231ZM268.189 97.0972C275.575 97.0972 281.065 92.0066 281.065 85.0195C281.065 77.4834 275.575 72.9917 268.189 72.9917C260.853 72.9917 255.313 77.4834 255.313 85.0195C255.313 92.0066 260.853 97.0972 268.189 97.0972ZM315.022 231L333.638 231L333.638 150.449C344.867 139.219 352.603 133.48 364.082 133.48C378.805 133.48 385.143 142.264 385.143 163.125L385.143 231L403.709 231L403.709 160.68C403.709 132.282 393.128 117.16 369.821 117.16C354.649 117.16 343.22 125.495 332.59 135.926L331.991 135.926L330.344 120.005L315.022 120.005L315.022 231ZM424.153 231L443.817 231L458.739 205.048C462.582 198.31 466.275 191.523 470.168 185.185L471.216 185.185C475.259 191.523 479.351 198.31 483.044 205.048L499.414 231L519.827 231L483.244 175.003L516.982 120.005L497.568 120.005L483.843 144.51C480.599 150.648 477.305 156.787 473.861 162.926L473.013 162.926C469.37 156.787 465.477 150.648 461.983 144.51L447.061 120.005L427.048 120.005L460.786 173.157L424.153 231ZM529.227 180.893L581.581 180.893L581.581 166.619L529.227 166.619L529.227 180.893ZM611.241 231L630.256 231L630.256 171.51L654.96 171.51C687.7 171.51 710.158 156.787 710.158 125.096C710.158 92.4059 687.7 81.1766 653.962 81.1766L611.241 81.1766L611.241 231ZM630.256 156.188L630.256 96.4983L651.716 96.4983C678.068 96.4983 691.343 103.436 691.343 125.096C691.343 146.556 678.866 156.188 652.515 156.188L630.256 156.188ZM776.39 233.645C803.589 233.645 827.895 212.384 827.895 175.602C827.895 138.621 803.589 117.16 776.39 117.16C749.19 117.16 724.885 138.621 724.885 175.602C724.885 212.384 749.19 233.645 776.39 233.645ZM776.39 218.124C757.175 218.124 744.299 201.155 744.299 175.602C744.299 150.049 757.175 132.682 776.39 132.682C795.604 132.682 808.68 150.049 808.68 175.602C808.68 201.155 795.604 218.124 776.39 218.124ZM894.979 233.645C908.254 233.645 919.883 226.508 928.667 217.924L929.116 217.924L930.913 231L946.085 231L946.085 68.3004L927.469 68.3004L927.469 111.022L928.467 130.236C918.685 122.051 910.301 117.16 897.225 117.16C871.872 117.16 849.164 139.619 849.164 175.602C849.164 212.584 867.18 233.645 894.979 233.645ZM899.071 218.124C879.408 218.124 868.378 202.153 868.378 175.403C868.378 150.049 882.502 132.881 900.469 132.881C909.702 132.881 918.036 136.125 927.469 144.51L927.469 202.802C918.286 213.033 909.253 218.124 899.071 218.124Z" fill="#19191A" fill-opacity="1.000000" transform="matrix(1 0 0 1 2044.96 439.427)"/></svg>